<?xml version="1.0" encoding="iso-8859-1"?>
<!-- Generator: Adobe Illustrator 19.0.0, SVG Export Plug-In . SVG Version: 6.00 Build 0)  -->
<svg version="1.1" id="Capa_1" xmlns="http://www.w3.org/2000/svg" xmlns:xlink="http://www.w3.org/1999/xlink" x="0px" y="0px"
	 viewBox="0 0 512 512" style="enable-background:new 0 0 512 512;" xml:space="preserve">
<g>
	<g>
		<g>
			<path d="M236.5,441.122c11.046,0,20-8.954,20-20c0-11.046-8.954-20-20-20h-40c-11.046,0-20,8.954-20,20c0,11.046,8.954,20,20,20
				H236.5z"/>
			<circle cx="236.5" cy="129.122" r="20"/>
			<path d="M373.5,317.122c-11.046,0-20,8.954-20,20V432c0,22.056-17.944,40-40,40h-194c-22.056,0-40-17.944-40-40V80
				c0-22.056,17.944-40,40-40h13c11.046,0,20-8.954,20-20s-8.954-20-20-20h-13c-44.112,0-80,35.888-80,80v352
				c0,44.112,35.888,80,80,80h194c44.112,0,80-35.888,80-80v-94.878C393.5,326.076,384.546,317.122,373.5,317.122z"/>
			<path d="M331.5,0.122h-40c-77.748,0-141,58.652-141,130.745c0,25.664,7.81,50.051,22.701,71.21l-21.243,52.549
				c-3.051,7.546-1.224,16.189,4.621,21.855c3.81,3.694,8.828,5.642,13.926,5.642c2.723-0.001,5.469-0.556,8.063-1.7l62.32-27.472
				c15.31,5.525,31.128,8.504,47.172,8.876c1.117,0.194,2.267,0.295,3.44,0.295h40c77.748,0,141-58.767,141-131v-0.255
				C472.5,58.774,409.248,0.122,331.5,0.122z M432.5,131.122c0,50.178-45.309,91-101,91h-36.798
				c-1.043-0.168-2.112-0.255-3.202-0.255c-14.719,0-29.257-3.019-43.21-8.972c-5.091-2.172-10.851-2.137-15.916,0.095
				l-24.872,10.964l7.086-17.529c2.793-6.909,1.514-14.798-3.321-20.47c-13.586-15.94-20.767-34.988-20.767-55.088
				c0-50.037,45.309-90.745,101-90.745h40c55.691,0,101,40.708,101,90.745V131.122z"/>
			<circle cx="387.5" cy="129.122" r="20"/>
			<circle cx="311.5" cy="129.122" r="20"/>
		</g>
	</g>
</g>
<g>
</g>
<g>
</g>
<g>
</g>
<g>
</g>
<g>
</g>
<g>
</g>
<g>
</g>
<g>
</g>
<g>
</g>
<g>
</g>
<g>
</g>
<g>
</g>
<g>
</g>
<g>
</g>
<g>
</g>
</svg>
