<?xml version="1.0" encoding="iso-8859-1"?>
<!-- Generator: Adobe Illustrator 19.0.0, SVG Export Plug-In . SVG Version: 6.00 Build 0)  -->
<svg version="1.1" id="Capa_1" xmlns="http://www.w3.org/2000/svg" xmlns:xlink="http://www.w3.org/1999/xlink" x="0px" y="0px"
	 viewBox="0 0 512 512" style="enable-background:new 0 0 512 512;" xml:space="preserve">
<g>
	<g>
		<g>
			<path d="M418.625,196.726l-28-20C387.232,174.303,383.168,173,379,173h-17.548c-2.173-16.224-10.841-30.416-23.31-39.856
				l21.001-21.001c7.811-7.81,7.81-20.474,0-28.285c-7.81-7.811-20.474-7.811-28.285,0l-29.019,29.02l-29.86-29.181
				c-7.899-7.72-20.562-7.576-28.282,0.325c-7.721,7.899-7.574,20.562,0.325,28.282l21.553,21.063
				c-12.06,9.245-20.528,22.949-22.898,38.633H226c-3.789,0-7.5,1.076-10.702,3.102l-30,19c-9.331,5.91-12.105,18.266-6.195,27.598
				c3.808,6.012,10.29,9.302,16.915,9.302c3.66,0,7.363-1.003,10.683-3.106l25.1-15.896H242v29h-8c-4.292,0-8.47,1.381-11.917,3.938
				l-31,23c-8.872,6.582-10.727,19.108-4.145,27.979c3.924,5.289,9.961,8.084,16.077,8.084c4.141,0,8.319-1.282,11.901-3.939
				L240.608,281h4.492c7.968,23.797,30.455,41,56.899,41c26.073,0,48.304-16.722,56.56-40h5.425l24.522,19.617
				c3.687,2.95,8.099,4.384,12.481,4.384c5.867,0,11.68-2.569,15.63-7.507c6.9-8.625,5.502-21.211-3.123-28.111l-30-24
				C379.947,243.546,375.541,242,371,242h-9v-29h10.591l22.785,16.274c3.523,2.518,7.585,3.728,11.608,3.728
				c6.239-0.001,12.388-2.912,16.291-8.377C429.695,215.637,427.613,203.146,418.625,196.726z M322,262c0,11.028-8.972,20-20,20
				s-20-8.972-20-20v-81c0-11.028,8.972-20,20-20s20,8.972,20,20V262z"/>
			<path d="M302,0C186.206,0,92,94.206,92,210c0,50.944,18.24,97.704,48.526,134.107L5.907,477.81
				c-7.837,7.784-7.881,20.447-0.097,28.284C9.719,510.03,14.858,512,20,512c5.096,0,10.193-1.935,14.094-5.81l134.801-133.884
				C205.152,402.094,251.523,420,302,420c36.026,0,71.574-9.283,102.803-26.846c9.628-5.415,13.043-17.608,7.629-27.236
				c-5.415-9.628-17.607-13.044-27.236-7.629C359.94,372.492,331.172,380,302,380c-93.738,0-170-76.262-170-170S208.262,40,302,40
				s170,76.262,170,170c0,29.532-7.682,58.61-22.217,84.09c-5.474,9.594-2.132,21.809,7.462,27.282
				c9.597,5.475,21.81,2.131,27.282-7.462C502.5,282.402,512,246.471,512,210C512,94.206,417.794,0,302,0z"/>
		</g>
	</g>
</g>
<g>
</g>
<g>
</g>
<g>
</g>
<g>
</g>
<g>
</g>
<g>
</g>
<g>
</g>
<g>
</g>
<g>
</g>
<g>
</g>
<g>
</g>
<g>
</g>
<g>
</g>
<g>
</g>
<g>
</g>
</svg>
