<?xml version="1.0" encoding="iso-8859-1"?>
<!-- Generator: Adobe Illustrator 19.0.0, SVG Export Plug-In . SVG Version: 6.00 Build 0)  -->
<svg version="1.1" id="Capa_1" xmlns="http://www.w3.org/2000/svg" xmlns:xlink="http://www.w3.org/1999/xlink" x="0px" y="0px"
	 viewBox="0 0 512 512" style="enable-background:new 0 0 512 512;" xml:space="preserve">
<g>
	<g>
		<g>
			<path d="M500.159,272.665l-98.167-43.864c-3.252-1.453-6.688-1.973-9.992-1.659c-3.307-0.311-6.741,0.206-9.992,1.659
				l-98.167,43.864c-7.203,3.219-11.841,10.37-11.841,18.26v76.161c0,31.28,12.358,63.208,33.906,87.596
				c23.007,26.039,53.103,40.379,84.744,40.379h2.699c31.642,0,61.737-14.34,84.744-40.379C499.642,430.294,512,398.367,512,367.086
				v-76.161C512,283.036,507.362,275.883,500.159,272.665z M472.001,367.086H472c0,41.528-33.636,87.975-78.65,87.975h-2.699
				c-45.015,0-78.65-46.446-78.65-87.975v-63.192l80-35.746l80,35.746V367.086z"/>
			<path d="M432,16.939H80c-44.112,0-80,35.888-80,80v216c0,44.112,35.888,80,80,80h133c11.046,0,20-8.954,20-20
				c0-11.046-8.954-20-20-20H80c-22.056,0-40-17.944-40-40V163.06h432v40c0,11.046,8.954,20,20,20c11.046,0,20-8.954,20-20V96.939
				C512,52.827,476.112,16.939,432,16.939z M472,123.06H40V96.939c0-22.056,17.944-40,40-40h352c22.056,0,40,17.944,40,40V123.06z"
				/>
		</g>
	</g>
</g>
<g>
</g>
<g>
</g>
<g>
</g>
<g>
</g>
<g>
</g>
<g>
</g>
<g>
</g>
<g>
</g>
<g>
</g>
<g>
</g>
<g>
</g>
<g>
</g>
<g>
</g>
<g>
</g>
<g>
</g>
</svg>
