<?xml version="1.0" encoding="iso-8859-1"?>
<!-- Generator: Adobe Illustrator 19.0.0, SVG Export Plug-In . SVG Version: 6.00 Build 0)  -->
<svg version="1.1" id="Capa_1" xmlns="http://www.w3.org/2000/svg" xmlns:xlink="http://www.w3.org/1999/xlink" x="0px" y="0px"
	 viewBox="0 0 512 512" style="enable-background:new 0 0 512 512;" xml:space="preserve">
<linearGradient id="SVGID_1_" gradientUnits="userSpaceOnUse" x1="0" y1="258" x2="512" y2="258" gradientTransform="matrix(1 0 0 -1 0 514)">
	<stop  offset="0" style="stop-color:#00F2FE"/>
	<stop  offset="0.021" style="stop-color:#03EFFE"/>
	<stop  offset="0.293" style="stop-color:#24D2FE"/>
	<stop  offset="0.554" style="stop-color:#3CBDFE"/>
	<stop  offset="0.796" style="stop-color:#4AB0FE"/>
	<stop  offset="1" style="stop-color:#4FACFE"/>
</linearGradient>
<path style="fill:url(#SVGID_1_);" d="M489.883,13.486c-14.056-11.444-32.295-15.9-50.102-12.214L205.838,50.414
	C178.119,56.152,158,80.862,158,109.168V333.55C141.512,321.274,121.09,314,99,314c-54.589,0-99,44.411-99,99s44.411,99,99,99
	c54.44,0,98.753-44.17,98.994-98.554c0-0.038,0.006-0.074,0.006-0.112V188.265l274-58.276v139.562
	C455.512,257.274,435.09,250,413,250c-54.589,0-99,44.411-99,99s44.411,99,99,99c10.706,0,21.245-1.704,31.325-5.064
	c10.479-3.493,16.142-14.82,12.649-25.298c-3.493-10.479-14.823-16.142-25.298-12.649C425.681,406.987,419.398,408,413,408
	c-32.533,0-59-26.467-59-59s26.467-59,59-59s59,26.467,59,59v0.133c0,11.046,8.954,20,20,20s20-8.954,20-20V60.015l0,0l0,0
	C512,41.889,503.938,24.93,489.883,13.486z M99,472c-32.533,0-59-26.467-59-59s26.467-59,59-59s59,26.467,59,59S131.533,472,99,472z
	 M198,109.168c0-9.436,6.707-17.672,16.004-19.597L447.946,40.43c1.359-0.281,2.726-0.42,4.083-0.42
	c4.552,0,8.989,1.557,12.599,4.495c4.685,3.815,7.372,9.468,7.372,15.51v29.079L198,147.37V109.168z M0,181.904
	C0,162.154,13.655,150,30.5,150c28.396,0,30.5,26.563,30.5,26.563S63.104,150,91.5,150c16.845,0,30.5,12.154,30.5,31.904
	c0,31.008-43.941,47.212-61,68.096C43.941,229.117,0,212.912,0,181.904z M72.04,22.971C72.04,8.751,81.872,0,94,0
	c20.446,0,21.96,19.125,21.96,19.125S117.475,0,137.92,0c12.128,0,21.96,8.751,21.96,22.971c0,22.326-31.637,33.993-43.92,49.029
	C103.677,56.964,72.04,45.297,72.04,22.971z"/>
<g>
</g>
<g>
</g>
<g>
</g>
<g>
</g>
<g>
</g>
<g>
</g>
<g>
</g>
<g>
</g>
<g>
</g>
<g>
</g>
<g>
</g>
<g>
</g>
<g>
</g>
<g>
</g>
<g>
</g>
</svg>
