<?xml version="1.0" encoding="iso-8859-1"?>
<!-- Generator: Adobe Illustrator 19.0.0, SVG Export Plug-In . SVG Version: 6.00 Build 0)  -->
<svg version="1.1" id="Capa_1" xmlns="http://www.w3.org/2000/svg" xmlns:xlink="http://www.w3.org/1999/xlink" x="0px" y="0px"
	 viewBox="0 0 512 512" style="enable-background:new 0 0 512 512;" xml:space="preserve">
<g>
	<g>
		<g>
			<circle cx="369" cy="243" r="20"/>
			<path d="M492,432.001H312.56c-6.036-17.019-19.542-30.524-36.56-36.56V361.02l113.954-0.013
				c44.095-0.004,79.979-35.883,79.991-79.979c0.003-11.045-8.949-20.002-19.995-20.005c-0.002,0-0.003,0-0.005,0
				c-11.043,0-19.997,8.951-20,19.995c-0.006,22.048-17.948,39.986-39.996,39.989L122,321.037c-22.056,0-40-17.944-40-40V70
				c0-16.542,13.458-30,30-30h57c16.542,0,30,13.458,30,30v0.982c0,11.046,8.954,20,20,20l170.986,0.002
				c10.686,0,20.732,4.162,28.287,11.72c7.556,7.558,11.715,17.604,11.712,28.289L429.984,133L143,133.003c-11.046,0-20,8.954-20,20
				s8.955,20,20,20l286.969-0.004l-0.003,7.993c-0.004,11.045,8.948,20.003,19.993,20.007c0.003,0,0.005,0,0.007,0
				c11.042,0,19.996-8.95,20-19.993l0.018-50.002c0.006-21.372-8.313-41.467-23.424-56.581
				c-15.11-15.115-35.202-23.439-56.575-23.439l-153.61-0.002C228.069,21.597,201.009,0,169,0h-57C73.402,0,42,31.401,42,70v211.037
				c0,44.112,35.887,80,80.002,80L236,361.024v34.416c-17.019,6.036-30.524,19.542-36.56,36.56H20c-11.046,0-20,8.954-20,20
				c0,11.046,8.954,20,20,20h179.44c8.257,23.278,30.487,40,56.56,40c11.046,0,20-8.954,20-20c0-11.046-8.954-20-20-20
				c-11.028,0-20-8.972-20-20s8.972-20,20-20s20,8.972,20,20c0,11.046,8.954,20,20,20h196c11.046,0,20-8.954,20-20
				C512,440.954,503.046,432,492,432.001z"/>
			<circle cx="293" cy="243" r="20"/>
			<circle cx="218" cy="243" r="20"/>
			<circle cx="143" cy="243" r="20"/>
		</g>
	</g>
</g>
<g>
</g>
<g>
</g>
<g>
</g>
<g>
</g>
<g>
</g>
<g>
</g>
<g>
</g>
<g>
</g>
<g>
</g>
<g>
</g>
<g>
</g>
<g>
</g>
<g>
</g>
<g>
</g>
<g>
</g>
</svg>
