<?xml version="1.0" encoding="iso-8859-1"?>
<!-- Generator: Adobe Illustrator 19.0.0, SVG Export Plug-In . SVG Version: 6.00 Build 0)  -->
<svg version="1.1" id="Capa_1" xmlns="http://www.w3.org/2000/svg" xmlns:xlink="http://www.w3.org/1999/xlink" x="0px" y="0px"
	 viewBox="0 0 512 512" style="enable-background:new 0 0 512 512;" xml:space="preserve">
<g>
	<g>
		<path d="M369,0c-33.084,0-60,26.916-60,60c0,8.636,2.358,24.14,22.745,58.925c6.675,11.391,13.297,21.449,17.255,27.295V359
			c0,62.309-50.691,113-113,113s-113-50.691-113-113c0-24.428,9.535-50.952,27-76.518V305c0,11.046,8.954,20,20,20s20-8.954,20-20
			v-76c0-7.972-4.734-15.182-12.049-18.352c-7.314-3.171-15.812-1.692-21.628,3.759C109.725,258.081,83,310.783,83,359
			c0,84.364,68.636,153,153,153s153-68.636,153-153V146.108c3.926-5.916,10.584-16.21,17.3-27.788C426.647,83.245,429,68.237,429,60
			C429,26.916,402.084,0,369,0z M371.605,98.413c-0.917,1.58-1.836,3.138-2.747,4.661c-0.909-1.505-1.825-3.044-2.739-4.607
			C349.194,69.543,349,60.376,349,60c0-11.028,8.972-20,20-20s20,8.972,20,19.977C388.991,60.34,388.568,69.202,371.605,98.413z"/>
	</g>
</g>
<g>
</g>
<g>
</g>
<g>
</g>
<g>
</g>
<g>
</g>
<g>
</g>
<g>
</g>
<g>
</g>
<g>
</g>
<g>
</g>
<g>
</g>
<g>
</g>
<g>
</g>
<g>
</g>
<g>
</g>
</svg>
