<?xml version="1.0" encoding="iso-8859-1"?>
<!-- Generator: Adobe Illustrator 19.0.0, SVG Export Plug-In . SVG Version: 6.00 Build 0)  -->
<svg version="1.1" id="Capa_1" xmlns="http://www.w3.org/2000/svg" xmlns:xlink="http://www.w3.org/1999/xlink" x="0px" y="0px"
	 viewBox="0 0 512 512" style="enable-background:new 0 0 512 512;" xml:space="preserve">
<g>
	<g>
		<g>
			<path d="M462,226.646v-13.324C462,138.154,400.846,77,325.678,77c-32.732,0-64.381,11.776-89.115,33.16
				c-16.363,14.146-29.025,31.881-37.093,51.591C187.068,155.413,173.217,152,159,152c-49.075,0-89,39.925-89,89v18.188
				C29.978,268.162,0,303.68,0,346c0,23.773,8.999,46.067,25.34,62.774C41.881,425.687,64.134,435,88,435h312
				c0.512,0,1.021-0.02,1.525-0.059c19.282-0.59,38.172-6.085,54.702-15.92c9.492-5.648,12.608-17.922,6.96-27.414
				c-5.648-9.493-17.922-12.608-27.415-6.961c-10.911,6.492-23.423,10.065-36.184,10.332c-0.197,0.005-0.394,0.012-0.589,0.021H88
				c-26.916,0-48-21.523-48-49c0-27.019,22.361-49,49.846-49H90c11.046,0,20-8.954,20-20v-36c0-27.019,21.981-49,49-49
				c14.036,0,27.427,6.052,36.741,16.604c5.133,5.815,13.168,8.139,20.612,5.959c7.445-2.179,12.958-8.466,14.146-16.132
				c7.193-46.422,48.111-81.43,95.179-81.43C378.79,117,422,160.21,422,213.322v24.598c0,7.4,4.087,14.196,10.624,17.666
				C456.912,268.477,472,293.541,472,321c0,11.046,8.954,20,20,20c11.046,0,20-8.954,20-20C512,282.867,493.119,247.737,462,226.646
				z"/>
			<path d="M255.963,364c11.045,0,20-8.955,20-20v-33.855C286.207,303.565,293,292.08,293,279c0-20.435-16.565-37-37-37
				s-37,16.565-37,37c0,13.048,6.76,24.51,16.963,31.098V344C235.963,355.046,244.917,364,255.963,364z"/>
		</g>
	</g>
</g>
<g>
</g>
<g>
</g>
<g>
</g>
<g>
</g>
<g>
</g>
<g>
</g>
<g>
</g>
<g>
</g>
<g>
</g>
<g>
</g>
<g>
</g>
<g>
</g>
<g>
</g>
<g>
</g>
<g>
</g>
</svg>
