<?xml version="1.0" encoding="iso-8859-1"?>
<!-- Generator: Adobe Illustrator 19.0.0, SVG Export Plug-In . SVG Version: 6.00 Build 0)  -->
<svg version="1.1" id="Capa_1" xmlns="http://www.w3.org/2000/svg" xmlns:xlink="http://www.w3.org/1999/xlink" x="0px" y="0px"
	 viewBox="0 0 512 512" style="enable-background:new 0 0 512 512;" xml:space="preserve">
<g>
	<g>
		<g>
			<path d="M452,10H60C26.916,10,0,36.916,0,70v332c0,44.112,35.888,80,80,80h149c11.046,0,20-8.954,20-20c0-11.046-8.954-20-20-20
				H80c-22.056,0-40-17.944-40-40V131h432v82c0,11.046,8.954,20,20,20c11.046,0,20-8.954,20-20V70C512,36.916,485.084,10,452,10z
				 M40,91V70c0-11.028,8.972-20,20-20h254.44c-2.22,6.26-3.44,12.989-3.44,20c0,7.386,1.349,14.46,3.801,21H40z M371,90
				c-11.028,0-20-8.972-20-20s8.972-20,20-20s20,8.972,20,20S382.028,90,371,90z M451,90c-11.028,0-20-8.972-20-20s8.972-20,20-20
				s20,8.972,20,20S462.028,90,451,90z"/>
			<path d="M500.159,279.604l-98.167-43.864c-3.25-1.452-6.679-1.972-9.992-1.659c-3.31-0.313-6.743,0.206-9.992,1.659
				l-98.167,43.864c-7.203,3.219-11.841,10.37-11.841,18.26v76.161c0,31.28,12.358,63.208,33.906,87.596
				C328.913,487.66,359.009,502,390.65,502h2.699c31.642,0,61.737-14.34,84.744-40.379C499.642,437.233,512,405.306,512,374.025
				v-76.161C512,289.975,507.362,282.823,500.159,279.604z M472.001,374.025H472C472,415.554,438.364,462,393.35,462h-2.699
				c-45.015,0-78.65-46.446-78.65-87.975v-63.192l80-35.746l80,35.746V374.025z"/>
		</g>
	</g>
</g>
<g>
</g>
<g>
</g>
<g>
</g>
<g>
</g>
<g>
</g>
<g>
</g>
<g>
</g>
<g>
</g>
<g>
</g>
<g>
</g>
<g>
</g>
<g>
</g>
<g>
</g>
<g>
</g>
<g>
</g>
</svg>
