<?xml version="1.0" encoding="iso-8859-1"?>
<!-- Generator: Adobe Illustrator 19.0.0, SVG Export Plug-In . SVG Version: 6.00 Build 0)  -->
<svg version="1.1" id="Capa_1" xmlns="http://www.w3.org/2000/svg" xmlns:xlink="http://www.w3.org/1999/xlink" x="0px" y="0px"
	 viewBox="0 0 512.002 512.002" style="enable-background:new 0 0 512.002 512.002;" xml:space="preserve">
<g>
	<g>
		<g>
			<path d="M472.454,343.134V325.92c0-32.487-26.885-58.918-59.931-58.918s-59.931,26.43-59.931,58.918v17.214
				c-22.268,5.021-38.955,24.946-38.955,48.71v99.884c0,11.033,8.944,19.977,19.977,19.977h157.818
				c11.033,0,19.977-8.944,19.977-19.977v-99.885C511.409,368.081,494.722,348.155,472.454,343.134z M392.546,325.92
				c0-10.457,8.962-18.964,19.977-18.964c11.015,0,19.977,8.508,19.977,18.964v15.982h-39.954V325.92z M471.455,471.751H353.591
				v-79.908c0-5.508,4.481-9.988,9.988-9.988h97.887c5.508,0,9.988,4.481,9.988,9.988V471.751z"/>
			<path d="M340.606,256.001c0-11.033-8.944-19.977-19.977-19.977h-44.948v-79.189c21.734-0.608,42.962-2.209,63.205-4.715
				c5.832,22.37,9.781,46.803,11.567,72.312c0.736,10.532,9.51,18.584,19.908,18.584c0.468,0,0.94-0.017,1.414-0.05
				c11.006-0.77,19.304-10.316,18.535-21.322c-1.853-26.485-5.886-52.065-11.837-75.834c19.774-3.917,38.055-8.794,54.27-14.536
				c22.661,31.89,36.9,70.243,39.339,111.91c0.621,10.618,9.425,18.811,19.924,18.811c0.393,0,0.789-0.012,1.186-0.035
				c11.014-0.645,19.421-10.095,18.776-21.11C504.074,105.96,391.949,0.296,256.703,0.296c-0.169,0-0.332,0.021-0.499,0.025
				c-0.168-0.004-0.331-0.025-0.499-0.025c-0.434,0-0.863,0.014-1.295,0.016c-0.25-0.002-0.498-0.016-0.749-0.016
				c-0.219,0-0.432,0.026-0.649,0.033C185.717,1.021,122.554,27.531,74.893,75.191C26.598,123.487,0,187.7,0,256.001
				s26.598,132.514,74.893,180.811c48.297,48.296,112.51,74.893,180.811,74.893c11.033,0,19.977-8.944,19.977-19.977V275.978h44.948
				C331.663,275.978,340.606,267.034,340.606,256.001z M404.155,98.552c-11.618,3.413-24.202,6.397-37.55,8.916
				c-5.243-13.967-11.237-26.949-17.925-38.677c-2.177-3.818-4.422-7.475-6.722-10.993
				C365.023,67.741,386.042,81.599,404.155,98.552z M275.681,46.376c13.584,7.544,26.712,21.901,38.293,42.207
				c4.368,7.66,8.402,15.976,12.077,24.849c-16.201,1.767-33.083,2.928-50.37,3.434V46.376z M166.146,59.737
				c-4.074,6.406-7.97,13.282-11.652,20.646c-4.22,8.439-8.095,17.369-11.623,26.708c-12.308-2.377-23.951-5.151-34.768-8.295
				C125.105,82.824,144.683,69.569,166.146,59.737z M79.539,131.582c15.442,5.413,32.742,10.048,51.403,13.824
				c-7.08,28.172-11.395,58.823-12.672,90.618H40.888C44.453,197.376,58.244,161.646,79.539,131.582z M40.887,275.979h77.384
				c1.263,31.436,5.498,61.75,12.436,89.658c-18.787,3.813-36.196,8.497-51.726,13.978
				C58.005,349.718,44.421,314.284,40.887,275.979z M107.276,412.435c10.944-3.216,22.745-6.05,35.233-8.473
				c3.624,9.686,7.622,18.931,11.985,27.657c3.683,7.364,7.577,14.24,11.651,20.646
				C144.336,442.272,124.466,428.753,107.276,412.435z M235.727,466.65c-16.45-8.333-32.356-26.615-45.497-52.899
				c-2.551-5.102-4.96-10.42-7.228-15.928c16.909-1.912,34.591-3.158,52.725-3.688V466.65z M235.727,354.168
				c-22.56,0.63-44.566,2.322-65.482,4.99c-6.63-25.611-10.715-53.764-11.989-83.18h77.471V354.168z M235.727,236.024h-77.471
				c1.29-29.791,5.461-58.288,12.242-84.16c20.856,2.653,42.783,4.34,65.23,4.97V236.024z M235.727,116.865
				c-17.971-0.527-35.521-1.758-52.32-3.65c2.151-5.163,4.422-10.162,6.823-14.965c13.142-26.284,29.047-44.566,45.497-52.899
				V116.865z"/>
		</g>
	</g>
</g>
<g>
</g>
<g>
</g>
<g>
</g>
<g>
</g>
<g>
</g>
<g>
</g>
<g>
</g>
<g>
</g>
<g>
</g>
<g>
</g>
<g>
</g>
<g>
</g>
<g>
</g>
<g>
</g>
<g>
</g>
</svg>
