<?xml version="1.0" encoding="iso-8859-1"?>
<!-- Generator: Adobe Illustrator 19.0.0, SVG Export Plug-In . SVG Version: 6.00 Build 0)  -->
<svg version="1.1" id="Capa_1" xmlns="http://www.w3.org/2000/svg" xmlns:xlink="http://www.w3.org/1999/xlink" x="0px" y="0px"
	 viewBox="0 0 512 512" style="enable-background:new 0 0 512 512;" xml:space="preserve">
<g>
	<g>
		<path d="M492,350c11.046,0,20-8.954,20-20V135.065c0-33.152-24.633-57.214-58.571-57.214c-6.161,0-12.151,1.043-17.816,3.022
			C429.913,55.228,407.15,36,380,36c-6.937,0-13.587,1.259-19.741,3.555C352.872,16.634,331.346,0,306,0
			c-23.698,0-44.059,14.541-52.645,35.167C246.755,32.489,239.55,31,232,31c-31.43,0-57,25.57-57,57v217.456
			c0,10.156-6.606,24.49-17.414,25.502l-76.247-34.977c-0.601-0.275-1.215-0.521-1.841-0.736C73.23,293.092,66.67,292,60,292
			c-33.084,0-60,26.916-60,60c0,16.252,6.393,31.469,17.999,42.848c0.741,0.727,1.539,1.395,2.385,1.998l16.025,11.435
			c0.336,0.24,0.679,0.47,1.029,0.688l96.535,60.231c44.879,28,96.559,42.8,149.457,42.8H400.5
			c47.684,0,90.051-30.214,105.425-75.185c3.573-10.452-2.003-21.821-12.455-25.395c-10.453-3.57-21.822,2.003-25.395,12.455
			C458.235,452.66,431.078,472,400.5,472H283.43c-45.403,0-89.763-12.703-128.282-36.736l-96.01-59.904l-14.035-10.015
			C41.803,361.673,40,356.982,40,352c0-11.028,8.972-20,20-20c1.959,0,3.88,0.277,5.721,0.825l76.257,34.98
			c0.462,0.212,0.932,0.406,1.409,0.582c5.217,1.927,10.133,2.779,15.007,2.588c34.964-1.336,56.606-35.05,56.606-65.52V88
			c0-9.374,7.626-17,17-17c9.374,0,17,7.626,17,17v156c0,11.046,8.954,20,20,20c11.046,0,20-8.954,20-20V57c0-9.374,7.626-17,17-17
			c9.374,0,17,7.626,17,17v187c0,11.046,8.954,20,20,20c11.046,0,20-8.954,20-20V93.423C363,83.815,370.626,76,380,76
			c9.374,0,17,7.815,17,17.423V244c0,11.046,8.954,20,20,20c11.046,0,20-8.954,20-20V136.423c0-8.784,6.747-18.571,16.429-18.571
			c5.584,0,18.571,1.678,18.571,17.214V330C472,341.046,480.954,350,492,350z"/>
	</g>
</g>
<g>
</g>
<g>
</g>
<g>
</g>
<g>
</g>
<g>
</g>
<g>
</g>
<g>
</g>
<g>
</g>
<g>
</g>
<g>
</g>
<g>
</g>
<g>
</g>
<g>
</g>
<g>
</g>
<g>
</g>
</svg>
