<?xml version="1.0" encoding="iso-8859-1"?>
<!-- Generator: Adobe Illustrator 19.0.0, SVG Export Plug-In . SVG Version: 6.00 Build 0)  -->
<svg version="1.1" id="Capa_1" xmlns="http://www.w3.org/2000/svg" xmlns:xlink="http://www.w3.org/1999/xlink" x="0px" y="0px"
	 viewBox="0 0 512 512" style="enable-background:new 0 0 512 512;" xml:space="preserve">
<g>
	<g>
		<path d="M492,352c11.046,0,20-8.954,20-20V100c0-33.084-26.916-60-60-60H212.56C204.303,16.722,182.073,0,156,0
			s-48.303,16.722-56.56,40H60C26.916,40,0,66.916,0,100v332c0,44.112,35.888,80,80,80h352c44.112,0,80-35.888,80-80
			c0-11.046-8.954-20-20-20c-11.046,0-20,8.954-20,20c0,22.056-17.944,40-40,40H80c-22.056,0-40-17.944-40-40V161h28
			c11.046,0,20-8.954,20-20s-8.954-20-20-20H40v-21c0-11.028,8.972-20,20-20h40.038c3.191,9.082,8.816,21.346,18.663,38.32
			c6.717,11.579,13.374,21.873,17.3,27.789V331.5c0,57.07,46.43,103.5,103.5,103.5C296.571,435,343,388.57,343,331.5
			c0-32.321-17.637-67.388-48.387-96.209c-5.816-5.451-14.313-6.926-21.629-3.759c-7.314,3.17-11.984,10.38-11.984,18.352V303
			c0,11.046,8.891,20,19.937,20c8.242,0,15.319-4.985,18.381-12.104c2.421,7.044,3.683,13.977,3.683,20.604
			c0,35.014-28.486,63.5-63.5,63.5C204.487,395,176,366.514,176,331.5V146.219c3.958-5.845,10.577-15.901,17.255-27.295
			C203.326,101.742,208.993,89.27,212.154,80H314.44c-2.22,6.26-3.44,12.989-3.44,20c0,7.386,1.349,14.46,3.801,21H243
			c-11.046,0-20,8.954-20,20s8.954,20,20,20h229v171C472,343.046,480.954,352,492,352z M158.881,98.467
			c-0.914,1.563-1.83,3.103-2.739,4.608c-0.869-1.456-1.747-2.943-2.624-4.451C136.435,69.246,136.01,60.342,136,60
			c0-11.028,8.972-20,20-20s20,8.972,20,20C176,60.376,175.806,69.543,158.881,98.467z M371,120c-11.028,0-20-8.972-20-20
			s8.972-20,20-20s20,8.972,20,20S382.028,120,371,120z M451,120c-11.028,0-20-8.972-20-20s8.972-20,20-20s20,8.972,20,20
			S462.028,120,451,120z"/>
	</g>
</g>
<g>
</g>
<g>
</g>
<g>
</g>
<g>
</g>
<g>
</g>
<g>
</g>
<g>
</g>
<g>
</g>
<g>
</g>
<g>
</g>
<g>
</g>
<g>
</g>
<g>
</g>
<g>
</g>
<g>
</g>
</svg>
