<?xml version="1.0" encoding="iso-8859-1"?>
<!-- Generator: Adobe Illustrator 19.0.0, SVG Export Plug-In . SVG Version: 6.00 Build 0)  -->
<svg version="1.1" id="Capa_1" xmlns="http://www.w3.org/2000/svg" xmlns:xlink="http://www.w3.org/1999/xlink" x="0px" y="0px"
	 viewBox="0 0 512 512" style="enable-background:new 0 0 512 512;" xml:space="preserve">
<g>
	<g>
		<g>
			<path d="M492,332c11.046,0,20-8.954,20-20V80c0-33.084-26.916-60-60-60H60C26.916,20,0,46.916,0,80v332c0,44.112,35.888,80,80,80
				h352c44.112,0,80-35.888,80-80c0-11.046-8.954-20-20-20c-11.046,0-20,8.954-20,20c0,22.056-17.944,40-40,40H80
				c-22.056,0-40-17.944-40-40V141h432v171C472,323.046,480.954,332,492,332z M40,101V80c0-11.028,8.972-20,20-20h254.44
				c-2.22,6.26-3.44,12.989-3.44,20c0,7.386,1.349,14.46,3.801,21H40z M371,100c-11.028,0-20-8.972-20-20s8.972-20,20-20
				s20,8.972,20,20S382.028,100,371,100z M451,100c-11.028,0-20-8.972-20-20s8.972-20,20-20s20,8.972,20,20S462.028,100,451,100z"/>
			<path d="M366.728,300.707c-0.106,0.029-3.174,0.842-9.035,1.998c-2.447-9.835-6.387-24.268-11.615-38.847
				C336.556,237.303,320.529,202,291.41,202c-8.817,0-18.213,3.212-28.724,9.819c-1.583,0.994-3.403,1.518-5.325,1.472
				c-0.225-0.004-0.474-0.004-0.698,0c-1.893,0.028-3.741-0.477-5.325-1.472C240.826,205.212,231.43,202,222.613,202
				c-29.12,0-45.146,35.303-54.668,61.857c-5.258,14.662-9.213,29.176-11.656,39.014c-7.301-1.296-11.287-2.239-11.536-2.299
				c-10.721-2.624-21.543,3.938-24.175,14.659c-2.633,10.728,3.928,21.559,14.655,24.191c0.896,0.22,11.354,2.74,29.851,5.374
				c0.032,4.754,0.062,9.986,0.062,13.247c0,19.594,12.521,40.957,35.478,40.957c30.795,0,29.792-37.562,56.378-38.956
				C283.586,361.438,282.583,399,313.378,399c22.957,0,35.478-21.362,35.478-40.957c0-3.254,0.03-8.474,0.062-13.22
				c17.901-2.702,27.58-5.317,28.398-5.543c10.631-2.931,16.862-13.908,13.955-24.546
				C388.364,304.096,377.369,297.829,366.728,300.707z M258.455,311c-24.137,0-45.104-1.23-62.237-2.846
				c1.826-7.029,4.305-15.836,7.349-24.934c9.716-29.044,17.473-38.258,20.224-40.801c1.23,0.458,3.276,1.391,6.26,3.266
				c8.078,5.077,17.387,7.658,26.96,7.605c9.556,0.084,18.882-2.527,26.961-7.605c2.983-1.875,5.028-2.808,6.259-3.266
				c2.74,2.533,10.446,11.684,20.111,40.464c3.107,9.251,5.639,18.261,7.496,25.418C301.744,309.84,281.871,311,258.455,311z"/>
		</g>
	</g>
</g>
<g>
</g>
<g>
</g>
<g>
</g>
<g>
</g>
<g>
</g>
<g>
</g>
<g>
</g>
<g>
</g>
<g>
</g>
<g>
</g>
<g>
</g>
<g>
</g>
<g>
</g>
<g>
</g>
<g>
</g>
</svg>
