<?xml version="1.0" encoding="iso-8859-1"?>
<!-- Generator: Adobe Illustrator 19.0.0, SVG Export Plug-In . SVG Version: 6.00 Build 0)  -->
<svg version="1.1" id="Capa_1" xmlns="http://www.w3.org/2000/svg" xmlns:xlink="http://www.w3.org/1999/xlink" x="0px" y="0px"
	 viewBox="0 0 512 512" style="enable-background:new 0 0 512 512;" xml:space="preserve">
<g>
	<g>
		<g>
			<path d="M126.397,280c-11.046,0-20,8.954-20,20c0,11.046,8.954,20,20,20h25.111c11.046,0,20-8.954,20-20c0-11.046-8.954-20-20-20
				H126.397z"/>
			<path d="M352.397,140c0-11.046-8.954-20-20-20h-206c-11.046,0-20,8.954-20,20s8.954,20,20,20h206
				C343.443,160,352.397,151.046,352.397,140z"/>
			<path d="M214.508,472h-108c-22.056,0-40-17.944-40-40V80c0-22.056,17.944-40,40-40h245.889c22.056,0,40,17.944,40,40v63
				c0,11.046,8.954,20,20,20c11.046,0,20-8.954,20-20V80c0-44.112-35.888-80-80-80H106.508c-44.112,0-80,35.888-80,80v352
				c0,44.112,35.888,80,80,80h108c11.046,0,20-8.954,20-20C234.508,480.954,225.554,472,214.508,472z"/>
			<path d="M206.508,220c0-11.046-8.954-20-20-20h-60.111c-11.046,0-20,8.954-20,20s8.954,20,20,20h60.111
				C197.554,240,206.508,231.046,206.508,220z"/>
			<path d="M411.825,338.001c-6.956-0.063-16.488,2.999-24.544,2.999h-9.351c-9.786,0.092-16.421,1.004-16.421,11.846
				c0,14.026,25.71,25.154,40.378,25.154c14.668,0,19.622-17.719,19.622-31.745C421.508,339.933,417.534,338.053,411.825,338.001z"
				/>
			<path d="M331.508,352.238c0-10.441-6.35-11.965-15.79-12.113h-9.983c-7.423,0-16.085-3.125-22.859-3.125
				c-6.865,0-11.368,1.306-11.368,8.125c0,13.807,4.954,31.875,19.622,31.875C305.798,377,331.508,366.045,331.508,352.238z"/>
			<path d="M482.768,384.855c-1.976-5.421-4.96-10.364-8.73-14.594c5.528-16.214,8.952-34.105,8.952-48.111
				c0-33.342-15.02-65.18-42.291-89.649c-25.487-22.867-58.854-36.138-91.688-36.493c-0.173-0.005-0.347-0.007-0.522-0.007h-0.94
				c-0.507,0-1.003,0.039-1.5,0.076c-0.497-0.037-0.994-0.076-1.5-0.076h-0.941c-0.175,0-0.349,0.002-0.523,0.007
				c-32.834,0.355-66.201,13.625-91.688,36.493c-27.272,24.468-42.291,56.306-42.291,89.649c0,14.005,3.425,31.897,8.953,48.111
				c-3.77,4.231-6.754,9.173-8.73,14.594c-4.349,11.931-3.464,25.226,2.408,36.439l8.83,16.947
				c3.445,6.613,10.281,10.759,17.737,10.759h17.082c7.523,0,13.417,4.867,14.334,11.836l2.627,19.973
				c0.574,4.365,2.573,8.419,5.685,11.532c3.283,3.282,21.986,19.659,68.014,19.659h0.001h0.001
				c46.028,0,64.732-16.377,68.014-19.659c3.112-3.113,5.111-7.167,5.685-11.532l2.627-19.973
				c0.917-6.969,6.811-11.836,14.334-11.836h17.082c7.456,0,14.292-4.147,17.737-10.759l8.81-16.91
				C486.229,410.082,487.114,396.786,482.768,384.855z M444.883,402.813l-3.224,6.188h-4.95c-27.733,0-50.44,19.606-53.993,46.619
				l-1.392,10.576c-5.822,2.514-16.945,5.805-35.278,5.805c-18.332,0-29.456-3.291-35.278-5.805l-1.392-10.576
				c-3.554-27.013-26.261-46.619-53.993-46.619h-4.95l-3.244-6.226c-0.887-1.694-0.643-3.232-0.281-4.224
				c0.361-0.99,1.162-2.323,2.928-3.048c5.056-2.075,9.044-6.13,11.034-11.221c1.99-5.091,1.811-10.774-0.498-15.729
				c-7.32-15.71-11.269-35.633-11.269-46.404c0-44.91,45.286-85.967,95.019-86.149h0.423c0.507,0,1.003-0.039,1.5-0.076
				c0.497,0.037,0.994,0.076,1.5,0.076h0.423c49.734,0.181,95.019,41.239,95.019,86.149c0,10.77-3.949,30.695-11.268,46.404
				c-2.309,4.956-2.488,10.638-0.498,15.729s5.977,9.146,11.034,11.221c1.766,0.725,2.567,2.058,2.928,3.048
				C445.545,399.543,445.789,401.08,444.883,402.813z"/>
			<path d="M338.162,383.412c0,0-21.248,38.715-10.732,38.715L346.508,432l19.078-9.874c10.515,0-10.732-38.715-10.732-38.715
				C350.245,378.863,342.772,378.863,338.162,383.412z"/>
		</g>
	</g>
</g>
<g>
</g>
<g>
</g>
<g>
</g>
<g>
</g>
<g>
</g>
<g>
</g>
<g>
</g>
<g>
</g>
<g>
</g>
<g>
</g>
<g>
</g>
<g>
</g>
<g>
</g>
<g>
</g>
<g>
</g>
</svg>
