<?xml version="1.0" encoding="iso-8859-1"?>
<!-- Generator: Adobe Illustrator 19.0.0, SVG Export Plug-In . SVG Version: 6.00 Build 0)  -->
<svg version="1.1" id="Capa_1" xmlns="http://www.w3.org/2000/svg" xmlns:xlink="http://www.w3.org/1999/xlink" x="0px" y="0px"
	 viewBox="0 0 512 512" style="enable-background:new 0 0 512 512;" xml:space="preserve">
<g>
	<g>
		<g>
			<path d="M467.983,208.371V192c0-32.525-26.916-58.986-60-58.986c-33.084,0-60,26.461-60,58.986v16.375
				C323.242,211.357,304,232.467,304,258v100c0,11.046,8.954,20,20,20h168c11.046,0,20-8.954,20-20V258
				C512,232.456,492.741,211.338,467.983,208.371z M387.983,192c0-10.469,8.972-18.986,20-18.986c11.028,0,20,8.517,20,18.986v16
				h-40V192z M472,338H344v-80c0-5.514,4.486-10,10-10h108c5.514,0,10,4.486,10,10V338z"/>
			<path d="M492,432.001H302.56c-6.036-17.019-19.542-30.524-36.56-36.56v-53.515c0-0.699-0.037-1.389-0.107-2.069
				c-0.599-10.509-9.287-18.852-19.946-18.85L80,321.037c-22.056,0-40-17.944-40-40V173.003L298,173c11.046,0,20-8.954,20-20
				s-8.954-20-20-20l-258,0.003V70c0-16.542,13.458-30,30-30h58c16.542,0,30,13.458,30,30v0.982c0,11.046,8.954,20,20,20
				l170.985,0.002c8.976,0,17.454,2.902,24.516,8.391c8.721,6.779,21.286,5.204,28.065-3.516c6.779-8.72,5.205-21.286-3.516-28.064
				c-14.148-10.998-31.114-16.811-49.065-16.811l-153.61-0.002C187.069,21.597,160.009,0,128,0H70C31.402,0,0,31.401,0,70v211.037
				c0,44.112,35.888,80,80.004,80L226,361.01v34.43c-17.019,6.036-30.524,19.542-36.56,36.56H20c-11.046,0-20,8.954-20,20
				c0,11.046,8.954,20,20,20h169.44c8.257,23.278,30.487,40,56.56,40c11.046,0,20-8.954,20-20c0-11.046-8.954-20-20-20
				c-11.028,0-20-8.972-20-20s8.972-20,20-20s20,8.972,20,20c0,11.046,8.954,20,20,20h206c11.046,0,20-8.954,20-20
				C512,440.954,503.046,432,492,432.001z"/>
		</g>
	</g>
</g>
<g>
</g>
<g>
</g>
<g>
</g>
<g>
</g>
<g>
</g>
<g>
</g>
<g>
</g>
<g>
</g>
<g>
</g>
<g>
</g>
<g>
</g>
<g>
</g>
<g>
</g>
<g>
</g>
<g>
</g>
</svg>
