<?xml version="1.0" encoding="iso-8859-1"?>
<!-- Generator: Adobe Illustrator 19.0.0, SVG Export Plug-In . SVG Version: 6.00 Build 0)  -->
<svg version="1.1" id="Capa_1" xmlns="http://www.w3.org/2000/svg" xmlns:xlink="http://www.w3.org/1999/xlink" x="0px" y="0px"
	 viewBox="0 0 512 512" style="enable-background:new 0 0 512 512;" xml:space="preserve">
<g>
	<g>
		<g>
			<path d="M254.444,220c0-11.046-8.954-20-20-20h-107c-11.046,0-20,8.954-20,20s8.954,20,20,20h107
				C245.49,240,254.444,231.046,254.444,220z"/>
			<path d="M127.444,280c-11.046,0-20,8.954-20,20c0,11.046,8.954,20,20,20h43c11.046,0,20-8.954,20-20c0-11.046-8.954-20-20-20
				H127.444z"/>
			<path d="M216.445,472H107.556c-22.056,0-40-17.944-40-40V80c0-22.056,17.944-40,40-40h245.889c22.056,0,40,17.944,40,40v112
				c0,11.046,8.954,20,20,20c11.046,0,20-8.954,20-20V80c0-44.112-35.888-80-80-80H107.556c-44.112,0-80,35.888-80,80v352
				c0,44.112,35.888,80,80,80h108.888c11.046,0,20-8.954,20-20C236.444,480.954,227.49,472,216.445,472z"/>
			<path d="M472.604,289.604l-98.167-43.864c-3.252-1.454-6.684-1.968-9.992-1.66c-3.307-0.307-6.741,0.208-9.992,1.66
				l-98.167,43.864c-7.203,3.219-11.841,10.37-11.841,18.26v76.161c0,31.281,12.358,63.208,33.906,87.596
				C301.358,497.66,331.453,512,363.095,512h2.699c31.642,0,61.737-14.34,84.744-40.379c21.548-24.388,33.906-56.316,33.906-87.596
				v-76.161C484.444,299.975,479.807,292.823,472.604,289.604z M444.443,320.833v63.192c0,41.529-33.635,87.975-78.65,87.975h-2.699
				c-45.014,0-78.65-46.447-78.65-87.975v-63.192l80-35.746l80,35.746H444.443z"/>
			<path d="M353.444,140c0-11.046-8.954-20-20-20h-206c-11.046,0-20,8.954-20,20s8.954,20,20,20h206
				C344.49,160,353.444,151.046,353.444,140z"/>
		</g>
	</g>
</g>
<g>
</g>
<g>
</g>
<g>
</g>
<g>
</g>
<g>
</g>
<g>
</g>
<g>
</g>
<g>
</g>
<g>
</g>
<g>
</g>
<g>
</g>
<g>
</g>
<g>
</g>
<g>
</g>
<g>
</g>
</svg>
