<?xml version="1.0" encoding="iso-8859-1"?>
<!-- Generator: Adobe Illustrator 19.0.0, SVG Export Plug-In . SVG Version: 6.00 Build 0)  -->
<svg version="1.1" id="Capa_1" xmlns="http://www.w3.org/2000/svg" xmlns:xlink="http://www.w3.org/1999/xlink" x="0px" y="0px"
	 viewBox="0 0 512 512" style="enable-background:new 0 0 512 512;" xml:space="preserve">
<g>
	<g>
		<g>
			<path d="M409.442,63.558C368.456,22.572,313.963,0,256,0S143.544,22.572,102.558,63.558C61.572,104.543,39,159.037,39,217
				s22.572,112.456,63.558,153.442c26.464,26.464,58.564,45.237,93.589,55.228C191.55,451.954,168.58,472,141,472h-18.998
				c-11.046,0-20,8.954-20,20c0,11.046,8.954,20,20,20H390c11.046,0,20-8.954,20-20c0-11.046-8.954-20-20-20h-17
				c-27.798,0-50.919-20.362-55.258-46.952c16.491-4.882,32.393-11.715,47.324-20.411c9.545-5.559,12.776-17.803,7.217-27.348
				c-5.559-9.545-17.803-12.775-27.348-7.217C318.057,385.726,287.304,394,256,394c-97.598,0-177-79.402-177-177S158.402,40,256,40
				s177,79.402,177,177c0,32.034-8.641,63.408-24.988,90.731c-5.672,9.479-2.585,21.76,6.894,27.432
				c9.477,5.668,21.76,2.585,27.431-6.895C462.396,294.741,473,256.265,473,217C473,159.037,450.428,104.543,409.442,63.558z
				 M235.466,433.037C242.251,433.67,249.1,434,256,434c7.534,0,15.042-0.397,22.495-1.172c2.561,14.416,8.332,27.736,16.572,39.172
				h-76.135C227.132,460.62,232.887,447.373,235.466,433.037z"/>
			<circle cx="275" cy="196" r="20"/>
			<path d="M149,217c0,59,48,107,107,107s107-48,107-107s-48-107-107-107S149,158,149,217z M323,217c0,36.944-30.056,67-67,67
				c-36.944,0-67-30.056-67-67c0-36.944,30.056-67,67-67C292.944,150,323,180.056,323,217z"/>
		</g>
	</g>
</g>
<g>
</g>
<g>
</g>
<g>
</g>
<g>
</g>
<g>
</g>
<g>
</g>
<g>
</g>
<g>
</g>
<g>
</g>
<g>
</g>
<g>
</g>
<g>
</g>
<g>
</g>
<g>
</g>
<g>
</g>
</svg>
