<?xml version="1.0" encoding="iso-8859-1"?>
<!-- Generator: Adobe Illustrator 19.0.0, SVG Export Plug-In . SVG Version: 6.00 Build 0)  -->
<svg version="1.1" id="Capa_1" xmlns="http://www.w3.org/2000/svg" xmlns:xlink="http://www.w3.org/1999/xlink" x="0px" y="0px"
	 viewBox="0 0 512 512" style="enable-background:new 0 0 512 512;" xml:space="preserve">
<g>
	<g>
		<g>
			<path d="M432,0H80C35.888,0,0,35.888,0,80v216c0,44.112,35.888,80,80,80h168c11.046,0,20-8.954,20-20c0-11.046-8.954-20-20-20H80
				c-22.056,0-40-17.944-40-40V80c0-22.056,17.944-40,40-40h352c22.056,0,40,17.944,40,40v161c0,11.046,8.954,20,20,20
				c11.046,0,20-8.954,20-20V80C512,35.888,476.112,0,432,0z"/>
			<circle cx="97" cy="187" r="20"/>
			<path d="M467.983,342.371V326c0-32.525-26.916-58.986-60-58.986c-33.084,0-60,26.461-60,58.986v16.375
				C323.242,345.357,304,366.467,304,392v100c0,11.046,8.954,20,20,20h168c11.046,0,20-8.954,20-20V392
				C512,366.456,492.741,345.338,467.983,342.371z M387.983,326c0-10.469,8.972-18.986,20-18.986c11.028,0,20,8.517,20,18.986v16
				h-40V326z M472,472H344v-80c0-5.514,4.486-10,10-10h108c5.514,0,10,4.486,10,10V472z"/>
			<path d="M357,187.878c0-59.551-45.309-108-101-108c-55.691,0-101,48.448-101,108s45.309,108,101,108
				C311.691,295.878,357,247.429,357,187.878z M256,255.878c-33.636,0-61-30.505-61-68s27.364-68,61-68s61,30.505,61,68
				C317,225.374,289.636,255.878,256,255.878z"/>
			<circle cx="415" cy="187" r="20"/>
		</g>
	</g>
</g>
<g>
</g>
<g>
</g>
<g>
</g>
<g>
</g>
<g>
</g>
<g>
</g>
<g>
</g>
<g>
</g>
<g>
</g>
<g>
</g>
<g>
</g>
<g>
</g>
<g>
</g>
<g>
</g>
<g>
</g>
</svg>
