<?xml version="1.0" encoding="iso-8859-1"?>
<!-- Generator: Adobe Illustrator 19.0.0, SVG Export Plug-In . SVG Version: 6.00 Build 0)  -->
<svg version="1.1" id="Capa_1" xmlns="http://www.w3.org/2000/svg" xmlns:xlink="http://www.w3.org/1999/xlink" x="0px" y="0px"
	 viewBox="0 0 512 512" style="enable-background:new 0 0 512 512;" xml:space="preserve">
<g>
	<g>
		<g>
			<path d="M256.098,286.061H257c47.77,0,92.585-31.779,114.171-80.962c4.439-10.115-0.161-21.913-10.275-26.352
				c-10.118-4.442-21.913,0.161-26.352,10.275C319.57,223.138,288.407,246.06,257,246.06h-0.902
				c-45.061,0-86.098-45.995-86.098-96.499v-69.22l86.549-38.798l70.79,31.733l-46.738,65.387c-1.683,1.894-3.755,2.307-4.873,2.381
				c-1.167,0.075-3.435-0.073-5.422-1.968c-0.096-0.091-0.192-0.182-0.29-0.271l-38.407-35.189
				c-8.145-7.462-20.796-6.908-28.257,1.236c-7.462,8.144-6.909,20.795,1.235,28.257l38.28,35.072
				c8.764,8.276,20.419,12.877,32.408,12.877c1.035,0,2.073-0.035,3.11-0.104c13.144-0.875,25.412-7.273,33.66-17.553
				c0.232-0.289,0.456-0.585,0.672-0.886l85.65-119.826c6.424-8.986,4.346-21.478-4.641-27.901
				c-8.987-6.423-21.479-4.346-27.9,4.641l-14.759,20.648L265.701,1.811c-2.572-1.154-5.36-1.75-8.181-1.75h-1.943
				c-2.82,0-5.608,0.596-8.181,1.75L141.819,49.139C134.628,52.362,130,59.508,130,67.389v82.173
				c0,33.358,13.146,67.417,36.066,93.441C190.521,270.77,222.494,286.061,256.098,286.061z"/>
			<path d="M432,72.061c-11.046,0-20,8.954-20,20c0,11.046,8.954,20,20,20c22.056,0,40,17.944,40,40v100c0,11.046,8.954,20,20,20
				c11.046,0,20-8.954,20-20v-100C512,107.949,476.112,72.061,432,72.061z"/>
			<path d="M492,332.061c-11.046,0-20,8.954-20,20c0,22.056-17.944,40-40,40H80c-22.056,0-40-17.944-40-40v-200
				c0-20.654,15.467-37.765,35.976-39.801c10.992-1.091,19.018-10.887,17.927-21.878c-1.091-10.991-10.892-19.011-21.879-17.927
				c-19.659,1.952-37.835,11.096-51.181,25.749C7.402,112.961,0,132.088,0,152.061v200c0,44.112,35.888,80,80,80h156v39.878h-70
				c-11.046,0-20,8.954-20,20c0,11.046,8.954,20,20,20h180c11.046,0,20-8.954,20-20c0-11.046-8.954-20-20-20h-70v-39.878h156
				c44.112,0,80-35.888,80-80C512,341.015,503.046,332.061,492,332.061z"/>
		</g>
	</g>
</g>
<g>
</g>
<g>
</g>
<g>
</g>
<g>
</g>
<g>
</g>
<g>
</g>
<g>
</g>
<g>
</g>
<g>
</g>
<g>
</g>
<g>
</g>
<g>
</g>
<g>
</g>
<g>
</g>
<g>
</g>
</svg>
