<?xml version="1.0" encoding="iso-8859-1"?>
<!-- Generator: Adobe Illustrator 19.0.0, SVG Export Plug-In . SVG Version: 6.00 Build 0)  -->
<svg version="1.1" id="Capa_1" xmlns="http://www.w3.org/2000/svg" xmlns:xlink="http://www.w3.org/1999/xlink" x="0px" y="0px"
	 viewBox="0 0 512 512" style="enable-background:new 0 0 512 512;" xml:space="preserve">
<g>
	<g>
		<g>
			<path d="M231,258.022v-8.016c0-25.364-20.816-46-46.402-46h-13.306c-3.368,0-6.321-3.217-6.321-6.884v-0.844
				c0-3.51,2.718-6.156,6.321-6.156H196c11.046,0,20-8.954,20-20c0-11.046-8.954-20-20-20v-3c0-11.046-8.954-20-20-20
				s-20,8.954-20,20v5.596c-18.048,6.309-31.03,23.448-31.03,43.56v0.844c0,25.852,20.78,46.884,46.321,46.884h13.306
				c3.65,0,6.402,2.58,6.402,6v8.016c0,3.478-2.752,6.1-6.402,6.1H144c-11.046,0-20,8.954-20,20c0,11.046,8.954,20,20,20h12v2
				c0,11.046,8.954,20,20,20s20-8.954,20-20v-3.412C216.091,297.647,231,279.533,231,258.022z"/>
			<path d="M334,412c-11.046,0-20,8.954-20,20c0,22.056-17.944,40-40,40H80c-22.056,0-40-17.944-40-40V80c0-22.056,17.944-40,40-40
				h194c22.056,0,40,17.944,40,40c0,11.046,8.954,20,20,20c11.046,0,20-8.954,20-20c0-44.112-35.888-80-80-80H80
				C35.888,0,0,35.888,0,80v352c0,44.112,35.888,80,80,80h194c44.112,0,80-35.888,80-80C354,420.954,345.046,412,334,412z"/>
			<path d="M500.159,168.726l-98.167-43.865c-3.25-1.453-6.679-1.968-9.992-1.66c-3.308-0.306-6.742,0.208-9.992,1.66
				l-98.167,43.865c-7.203,3.218-11.841,10.371-11.841,18.26v76.161c0,31.28,12.358,63.208,33.907,87.597
				c23.007,26.039,53.102,40.379,84.744,40.379h2.699c31.641,0,61.737-14.34,84.744-40.379C499.642,326.356,512,294.428,512,263.148
				v-76.161C512,179.097,507.362,171.945,500.159,168.726z M471.999,199.956v63.191c0,41.529-33.635,87.975-78.65,87.975h-2.699
				c-45.014,0-78.65-46.447-78.65-87.975v-63.191l80-35.747L471.999,199.956L471.999,199.956z"/>
			<path d="M157,401.122c-11.046,0-20,8.954-20,20c0,11.046,8.954,20,20,20h40c11.046,0,20-8.954,20-20c0-11.046-8.954-20-20-20H157
				z"/>
		</g>
	</g>
</g>
<g>
</g>
<g>
</g>
<g>
</g>
<g>
</g>
<g>
</g>
<g>
</g>
<g>
</g>
<g>
</g>
<g>
</g>
<g>
</g>
<g>
</g>
<g>
</g>
<g>
</g>
<g>
</g>
<g>
</g>
</svg>
