<?xml version="1.0" encoding="iso-8859-1"?>
<!-- Generator: Adobe Illustrator 19.0.0, SVG Export Plug-In . SVG Version: 6.00 Build 0)  -->
<svg version="1.1" id="Capa_1" xmlns="http://www.w3.org/2000/svg" xmlns:xlink="http://www.w3.org/1999/xlink" x="0px" y="0px"
	 viewBox="0 0 512 512" style="enable-background:new 0 0 512 512;" xml:space="preserve">
<g>
	<g>
		<g>
			<path d="M20,188h40c11.046,0,20-8.954,20-20s-8.954-20-20-20H20c-11.046,0-20,8.954-20,20S8.954,188,20,188z"/>
			<path d="M90.858,104.142C94.763,108.047,99.881,110,105,110s10.237-1.953,14.142-5.858c7.811-7.81,7.811-20.473,0-28.284l-28-28
				c-7.81-7.811-20.473-7.81-28.284,0c-7.811,7.81-7.811,20.473,0,28.284L90.858,104.142z"/>
			<path d="M196,80c11.046,0,20-8.954,20-20V20c0-11.046-8.954-20-20-20s-20,8.954-20,20v40C176,71.046,184.954,80,196,80z"/>
			<path d="M344,432c-11.046,0-20,8.954-20,20v40c0,11.046,8.954,20,20,20c11.046,0,20-8.954,20-20v-40
				C364,440.954,355.046,432,344,432z"/>
			<path d="M461.184,218.327l49-107c2.835-6.191,2.325-13.4-1.354-19.131C505.152,86.465,498.81,83,492,83h-64V20
				c0-6.825-3.48-13.178-9.231-16.853c-5.751-3.674-12.978-4.164-19.171-1.296l-108,50C284.526,55.125,280,62.208,280,70v64.777
				c-11.688,5.415-23.538,10.841-35.099,16.135c-87.363,40.002-169.88,77.787-214.331,121.733c-0.027,0.027-0.054,0.054-0.081,0.08
				C10.828,292.388,0,318.529,0,346.335V432c0,44.112,35.888,80,80,80h87.166c27.649,0,53.653-10.707,73.276-30.159
				c36.265-33.259,66.552-91.097,100.839-167.666c2.241-5.003,4.477-10.037,6.71-15.092c4.464-10.103-0.106-21.912-10.21-26.377
				c-10.104-4.463-21.912,0.107-26.377,10.211c-2.207,4.992-4.416,9.966-6.629,14.909c-25.214,56.307-52.441,112.198-81.826,144.838
				L114.142,333.857c-7.811-7.811-20.474-7.811-28.284,0c-7.81,7.811-7.811,20.475,0,28.285l105.244,105.244
				c-7.509,3.021-15.599,4.613-23.937,4.613H80c-22.056,0-40-17.944-40-40v-85.665c0-17.103,6.653-33.183,18.734-45.285
				c39.434-38.955,122.495-76.989,202.819-113.769c11.63-5.325,23.554-10.785,35.343-16.247l52.131,50.119
				c3.592,5.336,9.686,8.847,16.602,8.847H443C450.822,230,457.927,225.439,461.184,218.327z M374.338,190l-54.375-52.275
				c0.009-0.242,0.037-0.48,0.037-0.725V82.78l68-31.481V103c0,11.046,8.954,20,20,20h52.844l-30.682,67H374.338z"/>
			<path d="M492,296h-40c-11.046,0-20,8.954-20,20c0,11.046,8.954,20,20,20h40c11.046,0,20-8.954,20-20
				C512,304.954,503.046,296,492,296z"/>
			<path d="M436.142,392.858c-7.81-7.811-20.473-7.81-28.284,0c-7.811,7.81-7.811,20.474,0,28.285l28,28
				C439.763,453.048,444.881,455,450,455c5.119,0,10.237-1.952,14.142-5.858c7.811-7.81,7.811-20.474,0-28.285L436.142,392.858z"/>
		</g>
	</g>
</g>
<g>
</g>
<g>
</g>
<g>
</g>
<g>
</g>
<g>
</g>
<g>
</g>
<g>
</g>
<g>
</g>
<g>
</g>
<g>
</g>
<g>
</g>
<g>
</g>
<g>
</g>
<g>
</g>
<g>
</g>
</svg>
