<?xml version="1.0" encoding="iso-8859-1"?>
<!-- Generator: Adobe Illustrator 19.0.0, SVG Export Plug-In . SVG Version: 6.00 Build 0)  -->
<svg version="1.1" id="Capa_1" xmlns="http://www.w3.org/2000/svg" xmlns:xlink="http://www.w3.org/1999/xlink" x="0px" y="0px"
	 viewBox="0 0 512 512" style="enable-background:new 0 0 512 512;" xml:space="preserve">
<g>
	<g>
		<g>
			<path d="M392.234,261.988c-66.039,0-119.766,53.727-119.766,119.766S326.195,501.52,392.234,501.52S512,447.793,512,381.754
				S458.273,261.988,392.234,261.988z M312.39,381.754c0-44.026,35.818-79.844,79.844-79.844c14.056,0,27.266,3.664,38.749,10.066
				L322.456,420.504C316.054,409.02,312.39,395.81,312.39,381.754z M392.234,461.598c-15.513,0-29.996-4.462-42.263-12.148
				L459.93,339.491c7.686,12.266,12.148,26.75,12.148,42.263C472.078,425.78,436.26,461.598,392.234,461.598z"/>
			<path d="M228.554,441.637H79.844c-22.013,0-39.922-17.909-39.922-39.922V131.244H471.08v101.801
				c0,11.024,8.937,19.961,19.961,19.961c11.024,0,19.961-8.937,19.961-19.961V70.363c0-33.019-26.864-59.883-59.883-59.883H59.883
				C26.864,10.48,0,37.343,0,70.363v331.353c0,44.026,35.818,79.844,79.844,79.844h148.71c11.024,0,19.961-8.937,19.961-19.961
				S239.578,441.637,228.554,441.637z M450.121,50.402c11.007,0,19.961,8.955,19.961,19.961c0,11.007-8.954,19.961-19.961,19.961
				s-19.961-8.955-19.961-19.961C430.16,59.356,439.114,50.402,450.121,50.402z M370.277,50.402
				c11.007,0,19.961,8.955,19.961,19.961c0,11.007-8.954,19.961-19.961,19.961s-19.961-8.955-19.961-19.961
				C350.316,59.356,359.27,50.402,370.277,50.402z M39.922,70.363c0-11.006,8.954-19.961,19.961-19.961h253.944
				c-2.216,6.248-3.433,12.964-3.433,19.961c0,7.372,1.346,14.432,3.794,20.959H39.922V70.363z"/>
		</g>
	</g>
</g>
<g>
</g>
<g>
</g>
<g>
</g>
<g>
</g>
<g>
</g>
<g>
</g>
<g>
</g>
<g>
</g>
<g>
</g>
<g>
</g>
<g>
</g>
<g>
</g>
<g>
</g>
<g>
</g>
<g>
</g>
</svg>
