<?xml version="1.0" encoding="iso-8859-1"?>
<!-- Generator: Adobe Illustrator 19.0.0, SVG Export Plug-In . SVG Version: 6.00 Build 0)  -->
<svg version="1.1" id="Capa_1" xmlns="http://www.w3.org/2000/svg" xmlns:xlink="http://www.w3.org/1999/xlink" x="0px" y="0px"
	 viewBox="0 0 512 512" style="enable-background:new 0 0 512 512;" xml:space="preserve">
<g>
	<g>
		<g>
			<circle cx="262" cy="346" r="20"/>
			<path d="M282,472H80c-22.056,0-40-17.944-40-40V268c0-22.056,17.944-40,40-40h288c22.056,0,40,17.944,40,40v44
				c0,11.046,8.954,20,20,20c11.046,0,20-8.954,20-20v-44c0-44.112-35.888-80-80-80h-24.037v-70.534
				C343.963,52.695,290.131,0,223.963,0s-120,52.695-120,117.466V188H80c-44.112,0-80,35.888-80,80v164c0,44.112,35.888,80,80,80
				h202c11.046,0,20-8.954,20-20C302,480.954,293.046,472,282,472z M143.963,117.466c0-42.715,35.888-77.466,80-77.466
				s80,34.751,80,77.466V188h-160V117.466z"/>
			<circle cx="187" cy="346" r="20"/>
			<path d="M506.142,477.857L455.285,427l50.857-50.858c7.811-7.81,7.81-20.474,0-28.285c-7.81-7.811-20.473-7.811-28.284,0
				L427,398.715l-50.858-50.857c-7.81-7.811-20.473-7.81-28.284,0c-7.811,7.81-7.811,20.474,0,28.285L398.715,427l-50.857,50.858
				c-7.811,7.81-7.811,20.474,0,28.285C351.763,510.048,356.881,512,362,512c5.119,0,10.237-1.952,14.142-5.857L427,455.285
				l50.858,50.858C481.763,510.048,486.881,512,492,512c5.119,0,10.237-1.952,14.142-5.858
				C513.953,498.332,513.953,485.668,506.142,477.857z"/>
			<circle cx="112" cy="346" r="20"/>
		</g>
	</g>
</g>
<g>
</g>
<g>
</g>
<g>
</g>
<g>
</g>
<g>
</g>
<g>
</g>
<g>
</g>
<g>
</g>
<g>
</g>
<g>
</g>
<g>
</g>
<g>
</g>
<g>
</g>
<g>
</g>
<g>
</g>
</svg>
