<?xml version="1.0" encoding="iso-8859-1"?>
<!-- Generator: Adobe Illustrator 19.0.0, SVG Export Plug-In . SVG Version: 6.00 Build 0)  -->
<svg version="1.1" id="Capa_1" xmlns="http://www.w3.org/2000/svg" xmlns:xlink="http://www.w3.org/1999/xlink" x="0px" y="0px"
	 viewBox="0 0 512 512" style="enable-background:new 0 0 512 512;" xml:space="preserve">
<g>
	<g>
		<g>
			<circle cx="293" cy="204" r="30"/>
			<path d="M496.08,236.421l-59.773-12.453c-7.501-1.563-13.77-6.575-17.112-13.435l32.852-14.436
				c10.112-4.443,14.708-16.243,10.264-26.356c-4.443-10.112-16.242-14.711-26.356-10.264l-32.116,14.112
				c-2.849-7.437-2.052-15.78,2.301-22.424l33.467-51.082c5.192-7.925,4.112-18.404-2.587-25.103c-6.7-6.7-17.18-7.779-25.103-2.587
				l-51.081,33.467c-6.385,4.182-14.336,5.073-21.546,2.611l13.795-32.069c4.365-10.146-0.322-21.91-10.469-26.275
				c-10.147-4.367-21.911,0.323-26.275,10.469l-14.027,32.608c-7.295-3.225-12.654-9.703-14.281-17.51L275.58,15.921
				C273.647,6.646,265.474,0,256,0s-17.647,6.646-19.578,15.92l-12.453,59.773c-1.71,8.208-7.544,14.95-15.417,17.984
				l-12.626-32.434c-4.007-10.293-15.601-15.387-25.893-11.382c-10.293,4.007-15.389,15.6-11.382,25.893l12.883,33.094
				c-6.89,1.984-14.33,0.968-20.368-2.988l-51.082-33.467c-7.924-5.192-18.404-4.112-25.103,2.587
				c-6.699,6.699-7.779,17.179-2.587,25.103l33.467,51.082c4.339,6.621,5.146,14.931,2.332,22.349l-32.19-14.056
				c-10.122-4.42-21.912,0.202-26.332,10.325c-4.421,10.123,0.202,21.912,10.325,26.332l32.847,14.343
				c-3.332,6.898-9.62,11.94-17.149,13.509L15.921,236.42C6.646,238.353,0,246.526,0,256s6.646,17.647,15.922,19.578l59.773,12.453
				c8.054,1.678,14.689,7.331,17.802,14.981l-33.146,13.72c-10.206,4.225-15.056,15.923-10.831,26.129
				c3.189,7.705,10.636,12.355,18.487,12.355c2.548,0,5.14-0.49,7.641-1.525l33.065-13.686c2.166,7.017,1.192,14.656-2.852,20.828
				l-33.468,51.082c-5.192,7.925-4.112,18.405,2.587,25.104c6.699,6.698,17.179,7.777,25.103,2.587l51.082-33.468
				c6.465-4.235,14.539-5.099,21.823-2.517l-14.096,33.027c-4.336,10.159,0.384,21.91,10.543,26.246
				c2.562,1.093,5.222,1.61,7.842,1.61c7.77,0,15.161-4.556,18.404-12.153l14.274-33.443c7.16,3.265,12.405,9.686,14.012,17.398
				l12.453,59.773C238.353,505.354,246.526,512,256,512s17.647-6.646,19.578-15.921l12.453-59.773
				c1.639-7.868,7.071-14.383,14.454-17.582l13.73,33.384c3.177,7.726,10.638,12.397,18.504,12.397c2.535,0,5.111-0.485,7.6-1.508
				c10.215-4.201,15.091-15.888,10.889-26.104l-13.746-33.423c7.165-2.389,15.039-1.479,21.372,2.671l51.082,33.467
				c7.923,5.19,18.405,4.113,25.103-2.587s7.778-17.179,2.587-25.104l-33.468-51.082c-2.229-3.403-3.58-7.354-3.905-11.427
				c-0.88-11.011-10.523-19.225-21.529-18.344c-11.011,0.88-19.224,10.518-18.344,21.529c0.321,4.009,1.019,7.974,2.074,11.838
				c-15.741-4.291-32.847-2.528-47.77,5.442c-7.361,3.929-15.13,7.149-23.092,9.569c-16.16,4.91-29.483,15.748-37.573,29.901
				c-8.09-14.153-21.413-24.991-37.572-29.901c-7.963-2.42-15.732-5.639-23.091-9.568c-14.923-7.969-32.024-9.733-47.766-5.444
				c4.29-15.741,2.526-32.843-5.443-47.765c-3.929-7.36-7.149-15.129-9.569-23.093c-4.911-16.159-15.749-29.481-29.902-37.572
				c14.153-8.09,24.991-21.413,29.902-37.572c2.421-7.965,5.64-15.733,9.569-23.091c7.969-14.923,9.734-32.026,5.444-47.766
				c15.741,4.288,32.843,2.525,47.766-5.444c7.358-3.929,15.126-7.149,23.091-9.569c16.159-4.911,29.482-15.749,37.572-29.902
				c8.09,14.153,21.413,24.991,37.572,29.902c7.965,2.421,15.733,5.64,23.091,9.569c14.922,7.968,32.026,9.731,47.766,5.443
				c-4.289,15.74-2.525,32.843,5.444,47.766c3.929,7.358,7.149,15.126,9.569,23.091c4.91,16.159,15.746,29.481,29.899,37.571
				c-1.111,0.635-2.205,1.305-3.283,2.009c-9.246,6.043-11.843,18.438-5.8,27.684c6.043,9.247,18.437,11.842,27.683,5.801
				c2.558-1.673,5.373-2.836,8.365-3.46l59.773-12.453C505.354,273.647,512,265.474,512,256S505.354,238.353,496.08,236.421z"/>
			<circle cx="321" cy="287" r="20"/>
			<path d="M217.5,225c-32.257,0-58.5,26.243-58.5,58.5c0,32.257,26.243,58.5,58.5,58.5s58.5-26.243,58.5-58.5
				C276,251.243,249.757,225,217.5,225z M217.5,302c-10.201,0-18.5-8.299-18.5-18.5s8.299-18.5,18.5-18.5s18.5,8.299,18.5,18.5
				S227.701,302,217.5,302z"/>
		</g>
	</g>
</g>
<g>
</g>
<g>
</g>
<g>
</g>
<g>
</g>
<g>
</g>
<g>
</g>
<g>
</g>
<g>
</g>
<g>
</g>
<g>
</g>
<g>
</g>
<g>
</g>
<g>
</g>
<g>
</g>
<g>
</g>
</svg>
