<?xml version="1.0" encoding="iso-8859-1"?>
<!-- Generator: Adobe Illustrator 19.0.0, SVG Export Plug-In . SVG Version: 6.00 Build 0)  -->
<svg version="1.1" id="Capa_1" xmlns="http://www.w3.org/2000/svg" xmlns:xlink="http://www.w3.org/1999/xlink" x="0px" y="0px"
	 viewBox="0 0 512 512" style="enable-background:new 0 0 512 512;" xml:space="preserve">
<g>
	<g>
		<g>
			<path d="M388.99,418.5c11.046,0,20-8.954,20-20v-75c0-11.046-8.954-20-20-20c-11.046,0-20,8.954-20,20v75
				C368.99,409.546,377.944,418.5,388.99,418.5z"/>
			<path d="M389,438.5h-0.01c-11.046,0-19.995,8.954-19.995,20c0,11.046,8.96,20,20.005,20c11.046,0,20-8.954,20-20
				C409,447.454,400.046,438.5,389,438.5z"/>
			<path d="M432,33.5H80c-44.112,0-80,35.888-80,80v231c0,44.112,35.888,80,80,80h131c11.046,0,20-8.954,20-20
				c0-11.046-8.954-20-20-20H80c-22.056,0-40-17.944-40-40V117.738l173.755,108.045c13.029,8.101,27.637,12.152,42.245,12.152
				c14.608,0,29.216-4.051,42.245-12.152L472,117.738V200.5c0,11.046,8.954,20,20,20c11.046,0,20-8.954,20-20v-87
				C512,69.388,476.112,33.5,432,33.5z M277.122,191.814c-13.028,8.101-29.216,8.102-42.244,0L56.699,81.018
				C63.266,76.294,71.311,73.5,80,73.5h352c8.689,0,16.734,2.794,23.301,7.518L277.122,191.814z"/>
			<path d="M445.806,238.359c-3.751-3.751-8.838-5.858-14.143-5.858h-85.328c-5.305,0-10.392,2.107-14.143,5.858l-60.336,60.336
				c-3.75,3.75-5.857,8.838-5.857,14.142v85.328c0,5.361,2.153,10.497,5.974,14.257l41,40.336c3.895,3.832,8.961,5.743,14.025,5.743
				c5.173-0.001,10.344-1.995,14.258-5.974c7.748-7.874,7.644-20.537-0.23-28.284L306,389.784V321.12l48.62-48.62h68.76L472,321.12
				v68.809l-34.201,34.488c-7.778,7.843-7.725,20.506,0.118,28.284c7.843,7.778,20.506,7.724,28.284-0.118l40-40.336
				c3.715-3.746,5.799-8.808,5.799-14.083v-85.328c0-5.304-2.107-10.392-5.857-14.142L445.806,238.359z"/>
		</g>
	</g>
</g>
<g>
</g>
<g>
</g>
<g>
</g>
<g>
</g>
<g>
</g>
<g>
</g>
<g>
</g>
<g>
</g>
<g>
</g>
<g>
</g>
<g>
</g>
<g>
</g>
<g>
</g>
<g>
</g>
<g>
</g>
</svg>
