<?xml version="1.0" encoding="iso-8859-1"?>
<!-- Generator: Adobe Illustrator 19.0.0, SVG Export Plug-In . SVG Version: 6.00 Build 0)  -->
<svg version="1.1" id="Capa_1" xmlns="http://www.w3.org/2000/svg" xmlns:xlink="http://www.w3.org/1999/xlink" x="0px" y="0px"
	 viewBox="0 0 511.999 511.999" style="enable-background:new 0 0 511.999 511.999;" xml:space="preserve">
<g>
	<g>
		<path d="M488.55,107.399l-83.965-83.892C373.2-7.85,322.151-7.834,290.787,23.545L51.92,262.521
			c-7.804,7.808-7.806,20.462-0.002,28.271l28,28.021L6.02,391.787c-3.803,3.756-5.945,8.879-5.946,14.224
			c-0.001,5.345,2.138,10.468,5.938,14.227l86.986,85.986c3.896,3.851,8.978,5.775,14.059,5.775c5.118,0,10.236-1.954,14.141-5.857
			l72.979-72.979l26.866,26.887c3.75,3.753,8.84,5.862,14.145,5.862c0.009,0,0.019,0,0.027,0c5.315-0.007,10.409-2.131,14.157-5.901
			l167.823-168.877c7.785-7.834,7.745-20.495-0.089-28.279c-7.833-7.784-20.494-7.746-28.279,0.089L235.149,417.586l-28.379-28.402
			l43.617-43.617c1.839,0.298,3.724,0.46,5.647,0.46c19.327,0,34.994-15.668,34.994-34.994c0-19.327-15.667-34.994-34.994-34.994
			c-19.327,0-34.994,15.668-34.994,34.994c0,2.285,0.226,4.515,0.644,6.678l-43.182,43.182l-29.821-29.844l87.601-87.005h89.742
			c5.366,0,10.508-2.157,14.269-5.986l37.968-38.665c2.187,0.428,4.443,0.658,6.754,0.658c19.327,0,34.994-15.667,34.994-34.994
			s-15.667-34.994-34.994-34.994s-34.994,15.667-34.994,34.994c0,1.893,0.155,3.749,0.444,5.561l-32.83,33.433h-89.595
			c-5.279,0-10.345,2.088-14.092,5.809l-93.536,92.899L94.335,276.66L319.074,51.817c15.777-15.784,41.458-15.792,57.246-0.019
			l83.965,83.892c15.543,15.529,15.56,40.814,0.038,56.366c-7.802,7.816-7.79,20.478,0.026,28.279
			c7.816,7.803,20.477,7.791,28.279-0.026C519.721,189.158,519.686,138.507,488.55,107.399z M108.173,347.118
			c0.035,0.026,0.07,0.052,0.104,0.077l57.63,57.676l-58.932,58.934l-58.454-57.781L108.173,347.118z"/>
	</g>
</g>
<g>
</g>
<g>
</g>
<g>
</g>
<g>
</g>
<g>
</g>
<g>
</g>
<g>
</g>
<g>
</g>
<g>
</g>
<g>
</g>
<g>
</g>
<g>
</g>
<g>
</g>
<g>
</g>
<g>
</g>
</svg>
