<?xml version="1.0" encoding="iso-8859-1"?>
<!-- Generator: Adobe Illustrator 19.0.0, SVG Export Plug-In . SVG Version: 6.00 Build 0)  -->
<svg version="1.1" id="Capa_1" xmlns="http://www.w3.org/2000/svg" xmlns:xlink="http://www.w3.org/1999/xlink" x="0px" y="0px"
	 viewBox="0 0 511.999 511.999" style="enable-background:new 0 0 511.999 511.999;" xml:space="preserve">
<g>
	<g>
		<g>
			<path d="M407.003,324c-1.23,0-2.458,0.113-3.667,0.339l-9.228,1.721c-31.811,5.932-64.348,8.94-96.707,8.94h-36.398h-8h-36.397
				c-32.359,0-64.895-3.007-96.703-8.939l-9.233-1.722c-1.209-0.226-2.437-0.339-3.666-0.339c-24.813,0-45,20.187-45,45
				c0,23.722,7.738,49.866,20.699,69.934C99.391,464.771,123.292,479,150.004,479c23.815,0,43.534-8.535,58.61-25.366
				c12.076-13.482,19.417-30.213,25.895-44.974c9.75-22.216,14.902-31.185,22.663-33.197c8.504,2.037,13.88,11.193,23.891,33.922
				c6.447,14.637,13.754,31.226,25.75,44.559C321.771,470.57,341.35,479,365.004,479c60.099,0,87-49.723,87-99v-11
				C452.004,344.187,431.818,324,407.003,324z M197.881,392.586C184.872,422.229,176.235,439,150.004,439c-29.739,0-48-40.771-48-70
				c0-2.364,1.649-4.35,3.857-4.868l6.709,1.251c30.757,5.736,62.15,8.93,93.465,9.518
				C203.103,380.687,200.472,386.684,197.881,392.586z M412.004,380c0,13.841-3.39,59-47,59c-25.927,0-34.469-16.527-47.334-45.738
				c-2.703-6.137-5.45-12.375-8.541-18.384c30.932-0.644,61.932-3.83,92.314-9.496l6.704-1.25c2.208,0.518,3.857,2.504,3.857,4.868
				V380z"/>
			<path d="M511.359,249.003c-2.758-10.687-13.659-17.115-24.355-14.368c-0.792,0.204-80.889,20.365-226,20.365
				c-61.725,0-113.465-3.648-152.663-7.865c3.58-15.653,12.507-52.18,25.489-88.384C158.103,91.061,179.304,73,188.004,73
				c3.431,0,11.395,1.388,26.183,10.684c25.776,16.203,59.255,16.321,85.291,0.301C316.829,73.308,324.219,73,325.004,73
				c10.123,0,34.351,22.537,60.943,107.006c3.316,10.535,14.546,16.386,25.083,13.071c10.536-3.317,16.387-14.547,13.071-25.083
				c-11.105-35.271-22.997-63.976-35.35-85.315C369.67,49.714,348.222,33,325.004,33c-12.781,0-27.988,5.534-46.488,16.918
				c-13.165,8.098-30.06,8.061-43.041-0.099C217.471,38.501,201.943,33,188.004,33c-20.818,0-40.256,13.425-57.772,39.902
				c-11.749,17.759-23.206,42.099-34.053,72.347c-15.001,41.833-24.659,83.057-27.721,96.888
				c-28.158-4.066-43.601-7.543-43.968-7.627c-10.757-2.481-21.492,4.234-23.973,14.993c-2.485,10.763,4.227,21.501,14.99,23.985
				C19.314,274.366,110.457,295,261.004,295c150.817,0,232.612-20.756,236.02-21.64C507.708,270.59,514.118,259.69,511.359,249.003z
				"/>
		</g>
	</g>
</g>
<g>
</g>
<g>
</g>
<g>
</g>
<g>
</g>
<g>
</g>
<g>
</g>
<g>
</g>
<g>
</g>
<g>
</g>
<g>
</g>
<g>
</g>
<g>
</g>
<g>
</g>
<g>
</g>
<g>
</g>
</svg>
