<?xml version="1.0" encoding="iso-8859-1"?>
<!-- Generator: Adobe Illustrator 19.0.0, SVG Export Plug-In . SVG Version: 6.00 Build 0)  -->
<svg version="1.1" id="Capa_1" xmlns="http://www.w3.org/2000/svg" xmlns:xlink="http://www.w3.org/1999/xlink" x="0px" y="0px"
	 viewBox="0 0 512 512" style="enable-background:new 0 0 512 512;" xml:space="preserve">
<g>
	<g>
		<g>
			<path d="M467.983,331.871V315.5c0-32.525-26.916-58.986-60-58.986c-33.084,0-60,26.461-60,58.986v16.375
				C323.241,334.857,304,355.967,304,381.5v100c0,11.046,8.954,20,20,20h168c11.046,0,20-8.954,20-20v-100
				C512,355.956,492.741,334.838,467.983,331.871z M387.983,315.5c0-10.469,8.973-18.986,20-18.986c11.028,0,20,8.517,20,18.986v16
				h-40V315.5z M472,461.5H344v-80c0-5.514,4.486-10,10-10h108c5.514,0,10,4.486,10,10V461.5z"/>
			<path d="M452,10.5H60c-33.084,0-60,26.916-60,60v332c0,44.112,35.888,80,80,80h159c11.046,0,20-8.954,20-20
				c0-11.046-8.954-20-20-20H80c-22.056,0-40-17.944-40-40v-271h432v92c0,11.046,8.954,20,20,20c11.046,0,20-8.954,20-20v-153
				C512,37.416,485.084,10.5,452,10.5z M40,91.5v-21c0-11.028,8.972-20,20-20h254.44c-2.22,6.26-3.44,12.989-3.44,20
				c0,7.386,1.349,14.46,3.801,21H40z M371,90.5c-11.028,0-20-8.972-20-20s8.972-20,20-20s20,8.972,20,20S382.028,90.5,371,90.5z
				 M451,90.5c-11.028,0-20-8.972-20-20s8.972-20,20-20s20,8.972,20,20S462.028,90.5,451,90.5z"/>
		</g>
	</g>
</g>
<g>
</g>
<g>
</g>
<g>
</g>
<g>
</g>
<g>
</g>
<g>
</g>
<g>
</g>
<g>
</g>
<g>
</g>
<g>
</g>
<g>
</g>
<g>
</g>
<g>
</g>
<g>
</g>
<g>
</g>
</svg>
