<?xml version="1.0" encoding="iso-8859-1"?>
<!-- Generator: Adobe Illustrator 19.0.0, SVG Export Plug-In . SVG Version: 6.00 Build 0)  -->
<svg version="1.1" id="Capa_1" xmlns="http://www.w3.org/2000/svg" xmlns:xlink="http://www.w3.org/1999/xlink" x="0px" y="0px"
	 viewBox="0 0 512 512" style="enable-background:new 0 0 512 512;" xml:space="preserve">
<g>
	<g>
		<g>
			<path d="M492,254.061c11.046,0,20-8.954,20-20v-100c0-44.112-35.888-80-80-80H308.271l-5.859-9.506
				c-10.226-16.59-27.95-26.494-47.412-26.494c-19.462,0-37.187,9.904-47.412,26.494l-5.859,9.506H80c-44.112,0-80,35.888-80,80v200
				c0,44.112,35.888,80,80,80h156v39.878h-70c-11.046,0-20,8.954-20,20c0,11.046,8.954,20,20,20h180c11.046,0,20-8.954,20-20
				c0-11.046-8.954-20-20-20h-70v-39.878h156c44.112,0,80-35.888,80-80c0-11.046-8.954-20-20-20c-11.046,0-20,8.954-20,20
				c0,22.056-17.944,40-40,40H80c-22.056,0-40-17.944-40-40v-200c0-22.056,17.944-40,40-40h97.074L109.367,203.91
				c-10.779,17.489-11.235,38.64-1.219,56.58c9.989,17.891,28.168,28.571,48.631,28.571h28.365c11.046,0,20-8.954,20-20
				c0-11.046-8.954-20-20-20h-28.365c-8.304,0-12.351-5.644-13.706-8.071c-1.368-2.45-4.073-8.923,0.346-16.092L241.64,65.543
				c4.163-6.753,10.73-7.482,13.361-7.482s9.198,0.729,13.36,7.482l72.589,117.769l27.39,45.445
				c1.35,4.475,0.573,9.417-2.167,13.458c-1.733,2.557-5.721,6.846-12.951,6.846h-27.367c-11.046,0-20,8.954-20,20
				c0,11.046,8.954,20,20,20h27.367c18.48,0,35.698-9.12,46.057-24.396c10.445-15.404,12.611-34.819,5.794-51.936l-0.606-1.521
				l-29.308-48.627L332.926,94.06H432c22.056,0,40,17.944,40,40v100C472,245.107,480.954,254.061,492,254.061z"/>
			<path d="M276,209.061v-75c0-11.046-8.954-20-20-20c-11.046,0-20,8.954-20,20v75c0,11.046,8.954,20,20,20S276,220.107,276,209.061
				z"/>
			<path d="M256.01,289.061c11.046,0,20-8.954,20-20c0-11.046-8.954-20-20-20H256c-11.046,0-19.995,8.954-19.995,20
				C236.005,280.107,244.964,289.061,256.01,289.061z"/>
		</g>
	</g>
</g>
<g>
</g>
<g>
</g>
<g>
</g>
<g>
</g>
<g>
</g>
<g>
</g>
<g>
</g>
<g>
</g>
<g>
</g>
<g>
</g>
<g>
</g>
<g>
</g>
<g>
</g>
<g>
</g>
<g>
</g>
</svg>
