<?xml version="1.0" encoding="iso-8859-1"?>
<!-- Generator: Adobe Illustrator 19.0.0, SVG Export Plug-In . SVG Version: 6.00 Build 0)  -->
<svg version="1.1" id="Capa_1" xmlns="http://www.w3.org/2000/svg" xmlns:xlink="http://www.w3.org/1999/xlink" x="0px" y="0px"
	 viewBox="0 0 512 512" style="enable-background:new 0 0 512 512;" xml:space="preserve">
<g>
	<g>
		<path d="M492,350.998c11.046,0,20-8.954,20-20v-17c0-44.112-35.888-80-80-80h-39.895c1.309-7.428,1.942-14.986,1.892-22.634
			c-0.33-49.644-31.871-83.57-59.698-113.503c-24.378-26.223-45.433-48.87-45.433-77.859c0-7.193-3.862-13.832-10.115-17.387
			s-13.933-3.478-20.114,0.201c-11.892,7.078-46.753,33.268-78.612,69.047c-42.992,48.283-64.791,95.263-64.791,139.634
			c0,7.599,0.677,15.113,2.007,22.501H80c-44.112,0-80,35.888-80,80v118c0,44.112,35.888,80,80,80h352c44.112,0,80-35.888,80-80
			c0-11.046-8.954-20-20-20c-11.046,0-20,8.954-20,20c0,22.056-17.944,40-40,40h-1v-90c0-1.55-0.193-3.052-0.527-4.5
			c0.334-1.448,0.527-2.95,0.527-4.5c0-11.046-8.954-20-20-20h-58v-79h79c22.056,0,40,17.944,40,40v17
			C472,342.044,480.954,350.998,492,350.998z M40,313.998c0-22.056,17.944-40,40-40h78v79H40V313.998z M81,471.998h-1
			c-22.056,0-40-17.944-40-40v-39h41V471.998z M236,471.998H121v-79h115V471.998z M313,273.998v79H198v-79H313z M225.864,233.998
			c2.703-13.737,11.276-30.407,20.901-45.322c5.77,8.492,12.552,15.865,18.696,22.546c7.551,8.209,14.339,15.611,17.558,22.776
			H225.864z M391,392.998v79H276v-79H391z M351.174,233.998h-26.766c-2.994-21.014-16.986-36.242-29.504-49.854
			C283.15,171.366,273,160.33,273,146.998c0-8.322-5.154-15.775-12.94-18.712c-7.787-2.937-16.578-0.746-22.076,5.502
			c-5.109,5.808-47.592,55.305-52.532,100.21h-27.235c-1.966-7.314-2.983-14.842-2.983-22.501
			c0-62.632,63.039-125.833,99.905-156.38c9.919,27.01,30.132,48.754,49.864,69.979c25.08,26.977,48.768,52.458,48.995,86.534
			C354.049,219.245,353.098,226.728,351.174,233.998z"/>
	</g>
</g>
<g>
</g>
<g>
</g>
<g>
</g>
<g>
</g>
<g>
</g>
<g>
</g>
<g>
</g>
<g>
</g>
<g>
</g>
<g>
</g>
<g>
</g>
<g>
</g>
<g>
</g>
<g>
</g>
<g>
</g>
</svg>
