<?xml version="1.0" encoding="iso-8859-1"?>
<!-- Generator: Adobe Illustrator 19.0.0, SVG Export Plug-In . SVG Version: 6.00 Build 0)  -->
<svg version="1.1" id="Capa_1" xmlns="http://www.w3.org/2000/svg" xmlns:xlink="http://www.w3.org/1999/xlink" x="0px" y="0px"
	 viewBox="0 0 512 512" style="enable-background:new 0 0 512 512;" xml:space="preserve">
<g>
	<g>
		<g>
			<path d="M360.798,395.187c-10.116-4.44-21.913,0.162-26.352,10.275c-14.974,34.116-46.136,57.038-77.544,57.038H256
				c-45.06,0-86.097-45.995-86.097-96.499V296.78l86.549-38.798l70.789,31.733l-46.738,65.388c-1.682,1.894-3.754,2.307-4.873,2.381
				c-1.169,0.078-3.436-0.074-5.421-1.968c-0.144-0.137-0.29-0.272-0.438-0.405l-38.408-34.492
				c-8.219-7.381-20.863-6.701-28.244,1.517c-7.381,8.218-6.701,20.863,1.517,28.244l38.217,34.321
				c8.755,8.227,20.373,12.798,32.324,12.797c1.035,0,2.073-0.034,3.111-0.103c13.144-0.876,25.412-7.274,33.66-17.553
				c0.232-0.289,0.456-0.585,0.671-0.886L398.27,259.13c6.423-8.986,4.345-21.478-4.641-27.901
				c-8.986-6.424-21.478-4.346-27.901,4.641l-14.759,20.648l-85.366-38.267c-2.573-1.154-5.361-1.75-8.181-1.75h-1.943
				c-2.82,0-5.608,0.596-8.181,1.75l-105.577,47.328c-7.191,3.224-11.819,10.369-11.819,18.25v82.173
				c0,33.358,13.146,67.417,36.066,93.441C190.423,487.208,222.396,502.5,256,502.5h0.903c47.77,0,92.584-31.779,114.171-80.962
				C375.513,411.423,370.913,399.625,360.798,395.187z"/>
			<path d="M462,159.146v-13.324C462,70.654,400.846,9.5,325.678,9.5c-32.733,0-64.381,11.776-89.115,33.16
				c-16.364,14.147-29.026,31.881-37.093,51.591C187.068,87.914,173.217,84.5,159,84.5c-49.075,0-89,39.925-89,89v18.188
				C29.978,200.663,0,236.18,0,278.5c0,20.586,6.988,40.613,19.676,56.393c12.68,15.767,30.535,26.696,50.277,30.775
				c1.366,0.282,2.725,0.417,4.067,0.417c9.287-0.001,17.613-6.506,19.566-15.958c2.235-10.817-4.723-21.397-15.54-23.632
				C55.645,321.867,40,302.131,40,278.5c0-27.019,22.361-49,49.846-49H90c11.046,0,20-8.954,20-20v-36c0-27.019,21.981-49,49-49
				c14.036,0,27.427,6.052,36.742,16.604c5.133,5.815,13.168,8.136,20.612,5.959c7.445-2.179,12.958-8.467,14.146-16.133
				c7.193-46.423,48.11-81.43,95.178-81.43C378.79,49.5,422,92.71,422,145.822v24.598c0,7.401,4.087,14.197,10.624,17.666
				C456.912,200.976,472,226.042,472,253.5c0,30.69-19.299,58.547-48.021,69.317c-5.311,1.992-10.864,3.366-16.506,4.084
				c-10.958,1.396-18.709,11.41-17.313,22.367c1.287,10.1,9.895,17.475,19.815,17.475c0.842,0,1.695-0.053,2.552-0.162
				c8.709-1.11,17.287-3.232,25.495-6.31c21.506-8.065,39.897-22.283,53.184-41.118C504.81,299.87,512,277.168,512,253.5
				C512,215.368,493.119,180.237,462,159.146z"/>
		</g>
	</g>
</g>
<g>
</g>
<g>
</g>
<g>
</g>
<g>
</g>
<g>
</g>
<g>
</g>
<g>
</g>
<g>
</g>
<g>
</g>
<g>
</g>
<g>
</g>
<g>
</g>
<g>
</g>
<g>
</g>
<g>
</g>
</svg>
