<?xml version="1.0" encoding="iso-8859-1"?>
<!-- Generator: Adobe Illustrator 19.0.0, SVG Export Plug-In . SVG Version: 6.00 Build 0)  -->
<svg version="1.1" id="Capa_1" xmlns="http://www.w3.org/2000/svg" xmlns:xlink="http://www.w3.org/1999/xlink" x="0px" y="0px"
	 viewBox="0 0 512 512" style="enable-background:new 0 0 512 512;" xml:space="preserve">
<g>
	<g>
		<g>
			<path d="M442,140c11.046,0,20-8.954,20-20s-8.954-20-20-20c-16.542,0-30-13.458-30-30s13.458-30,30-30s30,13.458,30,30
				c0,11.046,8.954,20,20,20c11.046,0,20-8.954,20-20c0-38.598-31.402-70-70-70c-38.598,0-70,31.402-70,70S403.402,140,442,140z"/>
			<path d="M256,140c11.046,0,20-8.954,20-20s-8.954-20-20-20c-16.542,0-30-13.458-30-30s13.458-30,30-30s30,13.458,30,30
				c0,11.046,8.954,20,20,20c11.046,0,20-8.954,20-20c0-38.598-31.402-70-70-70c-38.598,0-70,31.402-70,70S217.402,140,256,140z"/>
			<path d="M70,140c11.046,0,20-8.954,20-20s-8.954-20-20-20c-16.542,0-30-13.458-30-30s13.458-30,30-30s30,13.458,30,30
				c0,11.046,8.954,20,20,20s20-8.954,20-20c0-38.598-31.402-70-70-70S0,31.402,0,70S31.402,140,70,140z"/>
			<path d="M70,372c-38.598,0-70,31.402-70,70c0,38.598,31.402,70,70,70c11.046,0,20-8.954,20-20c0-11.046-8.954-20-20-20
				c-16.542,0-30-13.458-30-30s13.458-30,30-30s30,13.458,30,30c0,11.046,8.954,20,20,20s20-8.954,20-20
				C140,403.402,108.598,372,70,372z"/>
			<path d="M442,226c16.542,0,30,13.458,30,30c0,11.046,8.954,20,20,20c11.046,0,20-8.954,20-20c0-38.598-31.402-70-70-70
				c-38.598,0-70,31.402-70,70c0,31.649,21.119,58.445,50,67.073v51.853c-22.54,6.734-40.34,24.534-47.073,47.073h-51.854
				c-6.733-22.54-24.534-40.34-47.073-47.073V307c0-0.169-0.021-0.332-0.025-0.5c0.004-0.168,0.025-0.331,0.025-0.5
				c0-11.046-8.954-20-20-20c-16.542,0-30-13.458-30-30s13.458-30,30-30s30,13.458,30,30c0,11.046,8.954,20,20,20
				c11.046,0,20-8.954,20-20c0-38.598-31.402-70-70-70c-12.04,0-23.378,3.057-33.283,8.432l-64.575-64.575
				c-7.811-7.811-20.475-7.811-28.285,0s-7.811,20.474,0,28.284l64.575,64.575C189.057,232.622,186,243.96,186,256
				c0,31.649,21.119,58.445,50,67.073v51.853c-28.881,8.628-50,35.424-50,67.073c0,38.598,31.402,70,70,70c11.046,0,20-8.954,20-20
				c0-11.046-8.954-20-20-20c-16.542,0-30-13.458-30-30s13.458-30,30-30s30,13.458,30,30c0,11.046,8.954,20,20,20h68.927
				c8.628,28.881,35.425,50,67.073,50c11.046,0,20-8.954,20-20c0-11.046-8.954-20-20-20c-16.542,0-30-13.458-30-30s13.458-30,30-30
				s30,13.458,30,30c0,11.046,8.954,20,20,20c11.046,0,20-8.954,20-20c0-31.649-21.119-58.445-50-67.073V306
				c0-11.046-8.954-20-20-20c-16.542,0-30-13.458-30-30S425.458,226,442,226z"/>
			<path d="M70,186c-38.598,0-70,31.402-70,70c0,38.598,31.402,70,70,70c11.046,0,20-8.954,20-20c0-11.046-8.954-20-20-20
				c-16.542,0-30-13.458-30-30s13.458-30,30-30s30,13.458,30,30c0,11.046,8.954,20,20,20s20-8.954,20-20
				C140,217.402,108.598,186,70,186z"/>
		</g>
	</g>
</g>
<g>
</g>
<g>
</g>
<g>
</g>
<g>
</g>
<g>
</g>
<g>
</g>
<g>
</g>
<g>
</g>
<g>
</g>
<g>
</g>
<g>
</g>
<g>
</g>
<g>
</g>
<g>
</g>
<g>
</g>
</svg>
