<?xml version="1.0" encoding="iso-8859-1"?>
<!-- Generator: Adobe Illustrator 19.0.0, SVG Export Plug-In . SVG Version: 6.00 Build 0)  -->
<svg version="1.1" id="Capa_1" xmlns="http://www.w3.org/2000/svg" xmlns:xlink="http://www.w3.org/1999/xlink" x="0px" y="0px"
	 viewBox="0 0 512 512" style="enable-background:new 0 0 512 512;" xml:space="preserve">
<g>
	<g>
		<g>
			<path d="M293.648,266.202c-2.339-5.669-4.366-12.145-6.198-19.797c-2.571-10.743-13.361-17.367-24.106-14.794
				c-10.742,2.571-17.366,13.364-14.794,24.106c2.322,9.702,4.979,18.121,8.12,25.737c8.398,20.364,27.938,33.556,49.826,33.607
				h63.125c0.043,0,0.084,0,0.128,0c21.349,0,40.644-12.628,49.179-32.201c6.912-15.852,15.137-40.512,15.072-67.975
				c-0.065-27.391-8.361-51.671-15.311-67.218c-8.562-19.149-27.846-31.555-49.176-31.606h-62.371c-0.045,0-0.089,0-0.135,0
				c-22.501,0-42.129,13.259-50.027,33.807c-1.051,2.734-2.336,6.177-3.677,10.193H132.356c-5.407,0-10.583,2.189-14.35,6.068
				L83.65,201.517c-7.567,7.794-7.529,20.203,0.086,27.951l35,35.612c3.76,3.826,8.899,5.981,14.264,5.981h60
				c11.046,0,20-8.954,20-20c0-11.046-8.954-20-20-20h-51.614l-15.428-15.697l14.856-15.303h127.491
				c9.213,0,17.234-6.294,19.426-15.243c1.618-6.607,3.649-12.96,6.585-20.598c1.937-5.036,6.797-8.16,12.739-8.16
				c0.014,0,0.027,0,0.04,0h62.37c5.656,0.013,10.525,3.053,12.706,7.931c5.369,12.012,11.78,30.609,11.828,50.988
				c0.049,20.528-6.356,39.55-11.738,51.893c-2.17,4.978-7.08,8.189-12.561,8.189c-0.011,0-0.022,0-0.033,0h-63.125
				C301.01,275.048,295.828,271.488,293.648,266.202z"/>
			<path d="M492,236.061c11.046,0,20-8.954,20-20v-100c0-44.112-35.888-80-80-80H80c-44.112,0-80,35.888-80,80v200
				c0,44.112,35.888,80,80,80h156v39.878h-70c-11.046,0-20,8.954-20,20c0,11.046,8.954,20,20,20h180c11.046,0,20-8.954,20-20
				c0-11.046-8.954-20-20-20h-70v-39.878h156c44.112,0,80-35.888,80-80c0-11.046-8.954-20-20-20c-11.046,0-20,8.954-20,20
				c0,22.056-17.944,40-40,40H80c-22.056,0-40-17.944-40-40v-200c0-22.056,17.944-40,40-40h352c22.056,0,40,17.944,40,40v100
				C472,227.107,480.954,236.061,492,236.061z"/>
			<circle cx="353" cy="215.061" r="20"/>
		</g>
	</g>
</g>
<g>
</g>
<g>
</g>
<g>
</g>
<g>
</g>
<g>
</g>
<g>
</g>
<g>
</g>
<g>
</g>
<g>
</g>
<g>
</g>
<g>
</g>
<g>
</g>
<g>
</g>
<g>
</g>
<g>
</g>
</svg>
