<?xml version="1.0" encoding="iso-8859-1"?>
<!-- Generator: Adobe Illustrator 19.0.0, SVG Export Plug-In . SVG Version: 6.00 Build 0)  -->
<svg version="1.1" id="Capa_1" xmlns="http://www.w3.org/2000/svg" xmlns:xlink="http://www.w3.org/1999/xlink" x="0px" y="0px"
	 viewBox="0 0 512 512" style="enable-background:new 0 0 512 512;" xml:space="preserve">
<g>
	<g>
		<g>
			<circle cx="98" cy="99" r="20"/>
			<path d="M248,472H80c-22.056,0-40-17.944-40-40v-37c0-22.056,17.944-40,40-40h73v67c0,11.046,8.954,20,20,20s20-8.954,20-20v-67
				h19c11.046,0,20-8.954,20-20c0-11.046-8.954-20-20-20H80c-22.056,0-40-17.944-40-40v-38c0-22.056,17.944-40,40-40h73v68
				c0,11.046,8.954,20,20,20s20-8.954,20-20v-68h199c14.874,0,28.438,8.18,35.399,21.348c5.163,9.766,17.269,13.495,27.028,8.334
				c9.766-5.163,13.497-17.264,8.335-27.029c-3.295-6.233-7.339-11.899-11.976-16.928C463.751,171.711,472,155.305,472,137V80
				c0-44.112-35.888-80-80-80H80C35.888,0,0,35.888,0,80v37c0,23.877,10.528,45.329,27.169,60C10.528,191.671,0,213.123,0,237v38
				c0,23.877,10.528,45.329,27.169,60C10.528,349.671,0,371.123,0,395v37c0,44.112,35.888,80,80,80h168c11.046,0,20-8.954,20-20
				C268,480.954,259.046,472,248,472z M40,80c0-22.056,17.944-40,40-40h73v67c0,11.046,8.954,20,20,20s20-8.954,20-20V40h199
				c22.056,0,40,17.944,40,40v57c0,11.028-8.972,20-20,20H80c-22.056,0-40-17.944-40-40V80z"/>
			<circle cx="98" cy="414" r="20"/>
			<circle cx="98" cy="256" r="20"/>
			<path d="M500.153,289.601l-98.263-43.865c-3.248-1.45-6.676-1.963-9.987-1.657c-3.31-0.307-6.739,0.206-9.987,1.657
				l-98.263,43.865c-7.207,3.217-11.848,10.371-11.848,18.263v76.161c0,31.284,12.371,63.214,33.941,87.603
				C328.771,497.662,358.889,512,390.552,512h2.701c31.663,0,61.781-14.338,84.807-40.371C499.629,447.24,512,415.31,512,384.026
				v-76.161C512,299.973,507.359,292.819,500.153,289.601z M471.999,320.839v63.187c0,41.529-33.677,87.975-78.747,87.975h-2.701
				c-45.07,0-78.747-46.447-78.747-87.975v-63.187l80.098-35.756L471.999,320.839L471.999,320.839z"/>
		</g>
	</g>
</g>
<g>
</g>
<g>
</g>
<g>
</g>
<g>
</g>
<g>
</g>
<g>
</g>
<g>
</g>
<g>
</g>
<g>
</g>
<g>
</g>
<g>
</g>
<g>
</g>
<g>
</g>
<g>
</g>
<g>
</g>
</svg>
