<?xml version="1.0" encoding="iso-8859-1"?>
<!-- Generator: Adobe Illustrator 19.0.0, SVG Export Plug-In . SVG Version: 6.00 Build 0)  -->
<svg version="1.1" id="Capa_1" xmlns="http://www.w3.org/2000/svg" xmlns:xlink="http://www.w3.org/1999/xlink" x="0px" y="0px"
	 viewBox="0 0 512 512" style="enable-background:new 0 0 512 512;" xml:space="preserve">
<g>
	<g>
		<g>
			<path d="M241,174.299c0-10.441-6.351-11.965-15.79-12.113h-9.983c-7.423,0-16.085-3.125-22.859-3.125
				c-6.865,0-11.368,1.306-11.368,8.125c0,13.807,4.954,31.875,19.622,31.875C215.29,199.061,241,188.106,241,174.299z"/>
			<path d="M492,254.061c11.046,0,20-8.954,20-20v-100c0-44.112-35.888-80-80-80h-82.381
				c-25.413-22.558-58.526-35.641-91.118-35.993c-0.174-0.004-0.348-0.007-0.522-0.007h-0.94c-0.506,0-1.003,0.039-1.5,0.076
				c-0.497-0.037-0.994-0.076-1.5-0.076h-0.94c-0.175,0-0.349,0.002-0.522,0.007c-32.592,0.352-65.705,13.435-91.118,35.993H80
				c-44.112,0-80,35.888-80,80v200c0,44.112,35.888,80,80,80h156v39.878h-70c-11.046,0-20,8.954-20,20c0,11.046,8.954,20,20,20h180
				c11.046,0,20-8.954,20-20c0-11.046-8.954-20-20-20h-70v-39.878h156c44.112,0,80-35.888,80-80c0-11.046-8.954-20-20-20
				c-11.046,0-20,8.954-20,20c0,22.056-17.944,40-40,40H80c-22.056,0-40-17.944-40-40v-200c0-22.056,17.944-40,40-40h50.49
				c-7.792,15.751-11.893,32.744-11.893,50.149c0,14.006,3.424,31.897,8.952,48.111c-3.77,4.23-6.754,9.173-8.729,14.594
				c-4.349,11.932-3.464,25.227,2.408,36.439l8.829,16.947c3.445,6.612,10.281,10.759,17.737,10.759h17.082
				c7.523,0,13.417,4.867,14.334,11.836l2.628,19.973c0.574,4.365,2.572,8.418,5.685,11.531c3.282,3.283,21.986,19.659,68.014,19.66
				h0.001h0.001c46.029-0.001,64.732-16.377,68.014-19.66c3.112-3.113,5.11-7.167,5.685-11.531l2.628-19.973
				c0.917-6.969,6.811-11.836,14.334-11.836h17.082c7.455,0,14.292-4.146,17.736-10.758l8.812-16.911
				c5.892-11.25,6.775-24.545,2.427-36.477c-1.976-5.421-4.96-10.363-8.729-14.593c5.528-16.214,8.952-34.105,8.952-48.111
				c0-17.406-4.101-34.398-11.893-50.149H432c22.056,0,40,17.944,40,40v100C472,245.107,480.954,254.061,492,254.061z
				 M354.376,224.872l-3.225,6.188H346.2c-27.732,0-50.439,19.606-53.992,46.619l-1.392,10.577
				c-5.822,2.513-16.946,5.804-35.278,5.804c-18.333,0-29.456-3.291-35.278-5.804l-1.392-10.577
				c-3.553-27.013-26.26-46.619-53.992-46.619h-4.95l-3.243-6.226c-0.888-1.694-0.643-3.232-0.281-4.224
				c0.36-0.99,1.162-2.323,2.928-3.048c5.057-2.075,9.044-6.13,11.034-11.221c1.99-5.091,1.811-10.774-0.498-15.729
				c-7.319-15.708-11.269-35.633-11.269-46.404c0-44.911,45.285-85.968,95.019-86.149h0.423c0.506,0,1.003-0.039,1.5-0.076
				c0.497,0.037,0.994,0.076,1.5,0.076h0.423c49.733,0.181,95.019,41.239,95.019,86.149c0,10.771-3.949,30.695-11.269,46.404
				c-2.309,4.955-2.488,10.638-0.498,15.729c1.99,5.091,5.978,9.146,11.034,11.221c1.766,0.725,2.567,2.058,2.929,3.048
				C355.037,221.604,355.281,223.142,354.376,224.872z"/>
			<path d="M248.654,204.473c0,0-21.247,38.715-10.732,38.715L257,253.061l19.078-9.873c10.516,0-10.732-38.715-10.732-38.715
				C260.737,199.924,253.263,199.924,248.654,204.473z"/>
			<path d="M321.317,160.062c-6.956-0.063-16.488,2.999-24.544,2.999h-9.352c-9.786,0.092-16.421,1.005-16.421,11.846
				c0,14.025,25.71,25.154,40.378,25.154c14.668,0,19.622-17.719,19.622-31.745C331,161.993,327.026,160.114,321.317,160.062z"/>
		</g>
	</g>
</g>
<g>
</g>
<g>
</g>
<g>
</g>
<g>
</g>
<g>
</g>
<g>
</g>
<g>
</g>
<g>
</g>
<g>
</g>
<g>
</g>
<g>
</g>
<g>
</g>
<g>
</g>
<g>
</g>
<g>
</g>
</svg>
