<?xml version="1.0" encoding="iso-8859-1"?>
<!-- Generator: Adobe Illustrator 19.0.0, SVG Export Plug-In . SVG Version: 6.00 Build 0)  -->
<svg version="1.1" id="Capa_1" xmlns="http://www.w3.org/2000/svg" xmlns:xlink="http://www.w3.org/1999/xlink" x="0px" y="0px"
	 viewBox="0 0 512 512" style="enable-background:new 0 0 512 512;" xml:space="preserve">
<g>
	<g>
		<g>
			<path d="M256.01,407c11.046,0,20-8.954,20-20c0-11.046-8.954-20-20-20H256c-11.046,0-19.995,8.954-19.995,20
				C236.005,398.046,244.964,407,256.01,407z"/>
			<path d="M488.568,126.53L385.471,23.432C370.361,8.322,350.271,0,328.902,0H183.099c-21.37,0-41.459,8.322-56.569,23.432
				L23.432,126.53C8.322,141.64,0,161.73,0,183.099v145.802c0,21.37,8.322,41.459,23.432,56.569L126.53,488.568
				c15.11,15.11,35.2,23.432,56.569,23.432h145.802c21.37,0,41.459-8.322,56.57-23.431l32.049-32.049
				c7.811-7.81,7.81-20.473,0-28.284c-7.81-7.811-20.473-7.811-28.284,0l-32.049,32.049c-7.556,7.555-17.6,11.716-28.285,11.716
				H183.099c-10.685,0-20.73-4.161-28.285-11.716L51.716,357.187C44.161,349.631,40,339.587,40,328.902V183.099
				c0-10.685,4.161-20.73,11.716-28.285L154.814,51.716C162.37,44.161,172.414,40,183.099,40h145.802
				c10.685,0,20.73,4.161,28.285,11.716l103.098,103.098c7.555,7.556,11.716,17.6,11.716,28.285v145.803
				c0,10.685-4.161,20.73-11.716,28.285c-7.811,7.81-7.81,20.473,0,28.284c7.81,7.811,20.473,7.811,28.284,0
				c15.11-15.11,23.432-35.2,23.432-56.569V183.099C512,161.73,503.678,141.64,488.568,126.53z"/>
			<path d="M276,317V120c0-11.046-8.954-20-20-20c-11.046,0-20,8.954-20,20v197c0,11.046,8.954,20,20,20S276,328.046,276,317z"/>
		</g>
	</g>
</g>
<g>
</g>
<g>
</g>
<g>
</g>
<g>
</g>
<g>
</g>
<g>
</g>
<g>
</g>
<g>
</g>
<g>
</g>
<g>
</g>
<g>
</g>
<g>
</g>
<g>
</g>
<g>
</g>
<g>
</g>
</svg>
