<?xml version="1.0" encoding="iso-8859-1"?>
<!-- Generator: Adobe Illustrator 19.0.0, SVG Export Plug-In . SVG Version: 6.00 Build 0)  -->
<svg version="1.1" id="Capa_1" xmlns="http://www.w3.org/2000/svg" xmlns:xlink="http://www.w3.org/1999/xlink" x="0px" y="0px"
	 viewBox="0 0 512 512" style="enable-background:new 0 0 512 512;" xml:space="preserve">
<g>
	<g>
		<g>
			<path d="M432,34H80C35.888,34,0,69.888,0,114v231c0,44.112,35.888,80,80,80h159c11.046,0,20-8.954,20-20c0-11.046-8.954-20-20-20
				H80c-22.056,0-40-17.944-40-40V118.238l173.755,108.045c13.031,8.103,27.635,12.153,42.245,12.153
				c14.606,0,29.218-4.052,42.245-12.152L472,118.238V205c0,11.046,8.954,20,20,20c11.046,0,20-8.954,20-20v-91
				C512,69.888,476.112,34,432,34z M277.123,192.314c-13.029,8.103-29.216,8.103-42.245,0L56.699,81.518
				C63.266,76.794,71.31,74,80,74h352c8.69,0,16.734,2.794,23.301,7.519L277.123,192.314z"/>
			<path d="M467.983,308.371V292c0-32.525-26.916-58.986-60-58.986c-33.084,0-60,26.461-60,58.986v16.375
				C323.242,311.357,304,332.467,304,358v100c0,11.046,8.954,20,20,20h168c11.046,0,20-8.954,20-20V358
				C512,332.456,492.741,311.338,467.983,308.371z M387.983,292c0-10.469,8.973-18.986,20-18.986c11.028,0,20,8.517,20,18.986v16
				h-40V292z M472,438H344v-80c0-5.514,4.486-10,10-10h108c5.514,0,10,4.486,10,10V438z"/>
		</g>
	</g>
</g>
<g>
</g>
<g>
</g>
<g>
</g>
<g>
</g>
<g>
</g>
<g>
</g>
<g>
</g>
<g>
</g>
<g>
</g>
<g>
</g>
<g>
</g>
<g>
</g>
<g>
</g>
<g>
</g>
<g>
</g>
</svg>
